<?xml version="1.0" encoding="utf-8"?>
<!-- Generator: Adobe Illustrator 27.5.0, SVG Export Plug-In . SVG Version: 6.00 Build 0)  -->
<svg version="1.1" xmlns="http://www.w3.org/2000/svg" xmlns:xlink="http://www.w3.org/1999/xlink" x="0px" y="0px"
	 viewBox="0 0 2500 2500" style="enable-background:new 0 0 2500 2500;" xml:space="preserve">
<g id="Background">
	<rect  fill="transparent" width="2500" height="2500"/>
</g>
<g id="Illustration">
	<g id="Post_service_tracking_1_">
		<g>
			<path style="fill:#d8d6dc;" stroke="#d8d6dc" d="M724.042,2123.857c-0.944,0-1.821-0.599-2.129-1.544c-0.384-1.177,0.258-2.441,1.434-2.824
				c11.591-3.786,1145.704-374.419,1407.091-478.236H374.122c-1.237,0-2.24-1.002-2.24-2.24c0-1.238,1.003-2.24,2.24-2.24h1767.899
				c1.071,0,1.993,0.759,2.198,1.809c0.206,1.052-0.362,2.102-1.354,2.505c-239.438,97.46-1406.368,478.82-1418.127,482.659
				C724.507,2123.822,724.272,2123.857,724.042,2123.857z"/>
		</g>
		<g>
			<path style="fill:#d8d6dc;" stroke="#d8d6dc" d="M1105.761,784.878c-4.966,0-9.579-2.771-11.852-7.376l-11.474-23.261c-1.475-2.992-4.507-4.983-7.863-4.869
				c-4.41,0.059-8.959-0.094-13.471-0.42c-3.297-0.199-6.506,1.487-8.162,4.401l-12.825,22.578
				c-3.057,5.383-9.357,7.903-15.326,6.134l-20.058-5.959c-5.975-1.776-9.849-7.328-9.42-13.503l1.798-25.858
				c0.231-3.323-1.506-6.514-4.426-8.131c-3.901-2.163-7.728-4.493-11.376-6.925c-2.777-1.853-6.441-1.947-9.332-0.254
				l-22.479,13.179c-5.361,3.141-12.087,2.198-16.362-2.292l-14.37-15.095c-4.29-4.506-4.847-11.241-1.357-16.377l14.616-21.511
				c1.872-2.756,1.997-6.348,0.319-9.15c-2.273-3.793-4.422-7.741-6.387-11.735c-1.446-2.94-4.498-4.889-7.929-4.782l-26.177,0.271
				c-0.047,0-0.094,0-0.141,0c-6.17,0-11.457-4.139-12.887-10.108l-4.833-20.192c-1.443-6.026,1.467-12.131,7.075-14.846
				l23.463-11.357c3.015-1.459,4.94-4.504,4.903-7.759c-0.048-4.408,0.092-8.901,0.417-13.359c0.238-3.257-1.505-6.422-4.444-8.063
				l-22.79-12.722c-5.44-3.034-7.988-9.297-6.199-15.233l6-19.873c1.788-5.921,7.379-9.725,13.595-9.334l26.095,1.798
				c3.361,0.251,6.598-1.49,8.23-4.384c2.169-3.848,4.518-7.641,6.98-11.27c1.856-2.734,1.953-6.344,0.249-9.196l-13.313-22.285
				c-3.184-5.331-2.234-12.02,2.308-16.268l15.224-14.231c4.531-4.235,11.303-4.782,16.468-1.336l21.719,14.498
				c2.797,1.868,6.443,1.999,9.286,0.324c3.844-2.26,7.827-4.386,11.836-6.319c2.963-1.431,4.853-4.502,4.816-7.827l-0.291-25.943
				c-0.069-6.188,4.121-11.506,10.189-12.93l20.37-4.777c6.066-1.422,12.204,1.468,14.943,7.017l11.475,23.261
				c1.462,2.966,4.509,4.869,7.781,4.869c0.027,0,0.055,0,0.083,0c4.457-0.055,8.986,0.094,13.472,0.42
				c3.313,0.217,6.508-1.487,8.161-4.401l12.823-22.578c3.058-5.383,9.366-7.897,15.327-6.134l20.057,5.959
				c5.975,1.776,9.849,7.328,9.42,13.503l-1.797,25.858c-0.231,3.323,1.506,6.514,4.426,8.131c3.902,2.163,7.729,4.493,11.375,6.925
				c2.773,1.851,6.439,1.949,9.332,0.254l22.479-13.179c5.357-3.143,12.085-2.201,16.362,2.292l14.37,15.098
				c4.289,4.504,4.848,11.237,1.358,16.373l-14.62,21.518c-1.869,2.752-1.98,6.365-0.281,9.205c2.256,3.773,4.385,7.682,6.323,11.62
				c1.452,2.946,4.531,4.839,7.863,4.839c0.03,0,0.06,0,0.091,0l26.181-0.271c6.263-0.02,11.588,4.093,13.028,10.11l4.833,20.19
				c1.443,6.024-1.467,12.129-7.073,14.846l-23.465,11.357c-3.015,1.459-4.94,4.504-4.903,7.759
				c0.048,4.408-0.092,8.901-0.417,13.359c-0.238,3.257,1.505,6.422,4.444,8.063l22.79,12.72c5.44,3.036,7.988,9.301,6.199,15.233
				l-6,19.873c-1.788,5.923-7.376,9.716-13.595,9.336l-26.095-1.798c-3.358-0.238-6.596,1.49-8.229,4.384
				c-2.18,3.863-4.528,7.654-6.981,11.27c-1.856,2.734-1.953,6.344-0.249,9.196l13.312,22.285c3.186,5.331,2.238,12.02-2.308,16.266
				l-15.223,14.234c-4.533,4.235-11.305,4.786-16.469,1.332l-21.722-14.496c-2.793-1.868-6.46-1.977-9.34-0.289
				c-3.787,2.227-7.73,4.333-11.717,6.26c-2.999,1.448-4.912,4.53-4.875,7.851l0.291,25.945c0.069,6.19-4.122,11.506-10.191,12.928
				l-20.369,4.777C1107.82,784.759,1106.782,784.875,1105.761,784.878z M1074.66,744.891c4.961,0,9.58,2.881,11.793,7.367
				l11.474,23.261c1.812,3.675,5.893,5.582,9.903,4.635l20.37-4.777c4.011-0.938,6.78-4.443,6.734-8.518l-0.291-25.945
				c-0.057-5.049,2.85-9.732,7.406-11.932c3.877-1.875,7.713-3.924,11.397-6.09c4.351-2.551,9.884-2.386,14.096,0.424l21.723,14.498
				c3.427,2.29,7.916,1.929,10.922-0.879l15.223-14.234c2.99-2.793,3.616-7.192,1.521-10.696l-13.312-22.286
				c-2.594-4.34-2.442-9.839,0.387-14.008c2.384-3.513,4.668-7.199,6.786-10.955c2.476-4.392,7.381-6.967,12.439-6.654l26.095,1.798
				c4.115,0.311,7.818-2.249,8.998-6.16l6-19.873c1.178-3.9-0.506-8.023-4.093-10.027l-22.791-12.72
				c-4.453-2.485-7.093-7.315-6.729-12.302c0.317-4.331,0.453-8.697,0.406-12.98c-0.056-4.983,2.861-9.631,7.432-11.843
				l23.465-11.357c3.697-1.789,5.617-5.808,4.668-9.771l-4.833-20.19c-0.943-3.939-4.444-6.672-8.531-6.672
				c-0.032,0-0.062,0-0.094,0l-26.181,0.271c-0.045,0-0.091,0-0.137,0c-5.027,0-9.679-2.87-11.881-7.341
				c-1.886-3.828-3.954-7.627-6.149-11.296c-2.591-4.331-2.426-9.835,0.42-14.021l14.62-21.518
				c2.294-3.377,1.925-7.805-0.897-10.769l-14.37-15.098c-2.834-2.975-7.296-3.598-10.852-1.518l-22.479,13.179
				c-4.363,2.561-9.892,2.404-14.084-0.389c-3.544-2.365-7.264-4.631-11.061-6.733c-4.435-2.459-7.075-7.31-6.723-12.361
				l1.797-25.857c0.282-4.066-2.278-7.724-6.227-8.896l-20.058-5.959c-3.961-1.183-8.135,0.492-10.156,4.051l-12.823,22.579
				c-2.505,4.408-7.375,7.05-12.382,6.654c-4.363-0.315-8.764-0.461-13.103-0.407c-4.919,0.052-9.693-2.841-11.927-7.367
				l-11.475-23.261c-1.811-3.673-5.885-5.589-9.902-4.637l-20.369,4.777c-4.01,0.941-6.779,4.445-6.733,8.52l0.291,25.941
				c0.057,5.053-2.827,9.73-7.349,11.911c-3.9,1.883-7.773,3.951-11.512,6.149c-4.315,2.535-9.825,2.356-14.043-0.459
				l-21.719-14.498c-3.428-2.286-7.917-1.925-10.922,0.882l-15.223,14.231c-2.989,2.796-3.615,7.194-1.522,10.699l13.313,22.285
				c2.594,4.34,2.442,9.839-0.387,14.008c-2.394,3.526-4.677,7.212-6.785,10.955c-2.475,4.39-7.361,6.984-12.44,6.654l-26.095-1.798
				c-4.117-0.293-7.818,2.249-8.998,6.158l-6,19.873c-1.178,3.902,0.505,8.026,4.093,10.027l22.791,12.722
				c4.453,2.485,7.093,7.315,6.729,12.302c-0.317,4.331-0.453,8.697-0.406,12.98c0.056,4.981-2.861,9.631-7.432,11.843
				l-23.463,11.357c-3.698,1.789-5.618,5.808-4.669,9.771l4.833,20.19c0.951,3.97,4.551,6.665,8.625,6.672l26.177-0.271
				c5.078-0.052,9.794,2.809,11.995,7.284c1.912,3.885,4.002,7.724,6.211,11.412c2.57,4.294,2.391,9.776-0.457,13.969
				l-14.616,21.511c-2.295,3.377-1.926,7.805,0.897,10.771l14.369,15.095c2.835,2.977,7.298,3.603,10.852,1.518l22.479-13.179
				c4.364-2.564,9.893-2.406,14.083,0.389c3.547,2.367,7.268,4.631,11.062,6.733c4.436,2.459,7.076,7.31,6.724,12.361l-1.798,25.857
				c-0.282,4.066,2.278,7.724,6.227,8.896l20.058,5.959c3.958,1.183,8.134-0.49,10.155-4.051l12.825-22.579
				c2.504-4.408,7.357-7.059,12.382-6.654c4.388,0.315,8.789,0.466,13.102,0.407C1074.57,744.891,1074.615,744.891,1074.66,744.891z
				 M1072.649,679.063c-1.069,0-2.138-0.017-3.211-0.055c-50.777-1.711-90.705-44.05-89.008-94.378
				c1.696-50.324,44.348-89.912,95.163-88.168c50.776,1.711,90.704,44.05,89.007,94.379c-0.821,24.383-11.176,46.984-29.154,63.639
				C1118.256,670.401,1096.065,679.063,1072.649,679.063z M1072.423,500.887c-46.972,0-85.937,37.035-87.517,83.894
				c-1.614,47.861,36.375,88.122,84.682,89.752c23.397,0.746,45.712-7.501,62.812-23.342c17.096-15.835,26.94-37.322,27.721-60.502
				c1.614-47.861-36.374-88.122-84.681-89.752C1074.432,500.904,1073.425,500.887,1072.423,500.887z"/>
			<path style="fill:#d8d6dc;" stroke="#d8d6dc" d="M1222.05,1045.826c-0.807,0-1.625-0.094-2.441-0.289l-14.843-3.55c-4.702-1.124-7.933-5.263-7.858-10.064l0.293-18.906
				c0.034-2.194-1.224-4.233-3.203-5.195c-2.936-1.426-5.828-2.979-8.601-4.62c-1.899-1.118-4.316-1.054-6.165,0.166l-15.855,10.484
				c-4.017,2.653-9.261,2.205-12.759-1.091l-11.062-10.432c-3.511-3.31-4.225-8.503-1.734-12.628l9.8-16.246
				c1.135-1.879,1.092-4.244-0.11-6.024c-1.819-2.695-3.548-5.501-5.139-8.341c-1.056-1.881-3.17-3.014-5.397-2.863l-19.056,1.227
				c-4.832,0.33-9.139-2.684-10.508-7.282l-4.315-14.518c-1.369-4.609,0.628-9.458,4.858-11.795l16.645-9.196
				c1.933-1.07,3.093-3.141,2.954-5.278c-0.21-3.218-0.285-6.514-0.223-9.793c0.042-2.15-1.221-4.169-3.214-5.145l-17.1-8.369
				c-4.341-2.126-6.576-6.871-5.438-11.541l3.59-14.713c1.125-4.609,5.213-7.794,9.972-7.794c0.054,0,0.107,0,0.162,0l19.078,0.282
				c0.03,0,0.058,0,0.086,0c2.196,0,4.224-1.24,5.185-3.18c1.444-2.918,3.013-5.788,4.665-8.527c1.123-1.866,1.06-4.241-0.163-6.057
				l-10.574-15.71c-2.691-3.999-2.234-9.22,1.107-12.698l10.53-10.966c3.328-3.469,8.544-4.176,12.689-1.721l16.39,9.706
				c1.913,1.133,4.321,1.087,6.133-0.114c2.737-1.813,5.569-3.526,8.416-5.094c1.897-1.046,3.03-3.135,2.886-5.32l-1.231-18.884
				c-0.312-4.793,2.71-9.087,7.349-10.443l14.65-4.281c4.627-1.35,9.507,0.623,11.859,4.808l9.274,16.493
				c1.077,1.918,3.167,3.08,5.353,2.929c3.266-0.208,6.592-0.286,9.88-0.225c2.191,0.035,4.233-1.212,5.219-3.189l8.452-16.95
				c2.139-4.296,6.911-6.512,11.608-5.39l14.844,3.55c4.701,1.124,7.932,5.263,7.858,10.064l-0.293,18.908
				c-0.034,2.192,1.224,4.231,3.203,5.193c2.942,1.431,5.836,2.984,8.601,4.62c1.896,1.118,4.318,1.054,6.164-0.166l15.857-10.484
				c4.017-2.653,9.262-2.205,12.759,1.092l11.061,10.432c3.51,3.312,4.224,8.503,1.737,12.628l-9.803,16.25
				c-1.132,1.877-1.077,4.257,0.14,6.064c1.804,2.675,3.516,5.451,5.089,8.255c1.072,1.91,3.205,3.071,5.416,2.905l19.06-1.227
				c4.833-0.315,9.14,2.682,10.507,7.284l4.315,14.516c1.369,4.609-0.628,9.458-4.857,11.795l-16.645,9.196
				c-1.934,1.07-3.094,3.141-2.954,5.276c0.209,3.226,0.284,6.521,0.222,9.795c-0.042,2.15,1.221,4.169,3.214,5.145l17.101,8.369
				c4.339,2.126,6.575,6.871,5.437,11.541l-3.589,14.713c-1.125,4.609-5.215,7.796-9.978,7.796c-0.052,0-0.104,0-0.156,0
				l-19.079-0.284c-2.141-0.061-4.298,1.214-5.27,3.18c-1.447,2.922-3.016,5.79-4.667,8.529c-1.122,1.864-1.059,4.239,0.164,6.055
				l10.573,15.71c2.692,3.999,2.237,9.22-1.107,12.7l-10.53,10.963c-3.327,3.467-8.543,4.176-12.688,1.724l-16.394-9.71
				c-1.912-1.129-4.333-1.074-6.171,0.144c-2.697,1.785-5.5,3.482-8.332,5.044c-1.923,1.061-3.072,3.156-2.929,5.339l1.232,18.888
				c0.312,4.79-2.71,9.084-7.349,10.441l-14.651,4.281c-4.627,1.352-9.506-0.623-11.859-4.808l-9.272-16.491
				c-1.081-1.921-3.174-3.1-5.353-2.931c-3.267,0.208-6.589,0.284-9.879,0.225c-2.206,0.02-4.233,1.21-5.219,3.189l-8.453,16.953
				C1229.447,1043.698,1225.882,1045.826,1222.05,1045.826z M1182.456,997.928c1.811,0,3.62,0.472,5.221,1.42
				c2.667,1.577,5.452,3.071,8.278,4.445c3.538,1.719,5.786,5.368,5.726,9.294l-0.293,18.906c-0.042,2.686,1.776,5.005,4.421,5.637
				l14.843,3.55c2.659,0.639,5.35-0.61,6.556-3.03l8.453-16.952c1.754-3.515,5.411-5.733,9.311-5.67
				c3.168,0.061,6.365-0.013,9.511-0.217c3.874-0.236,7.628,1.796,9.545,5.206l9.271,16.491c1.327,2.358,4.081,3.471,6.698,2.704
				l14.651-4.281c2.609-0.763,4.309-3.167,4.134-5.847l-1.232-18.888c-0.256-3.909,1.799-7.66,5.236-9.557
				c2.728-1.503,5.427-3.137,8.024-4.856c3.257-2.157,7.547-2.262,10.926-0.263l16.394,9.71c2.346,1.387,5.297,0.987,7.174-0.971
				l10.531-10.966c1.869-1.945,2.124-4.863,0.621-7.094l-10.573-15.71c-2.191-3.253-2.302-7.52-0.284-10.869
				c1.587-2.634,3.096-5.392,4.489-8.203c1.712-3.461,5.311-5.674,9.199-5.674c0.051,0,0.102,0,0.152,0l19.079,0.284
				c0.028,0,0.059,0,0.088,0c2.689,0,4.996-1.789,5.627-4.379l3.589-14.713c0.636-2.607-0.619-5.261-3.052-6.453l-17.102-8.369
				c-3.551-1.741-5.798-5.372-5.724-9.253c0.06-3.152-0.012-6.322-0.213-9.421c-0.252-3.859,1.813-7.584,5.26-9.487l16.645-9.196
				c2.371-1.31,3.493-4.025,2.729-6.597l-4.315-14.516c-0.767-2.586-3.198-4.276-5.923-4.091l-19.061,1.227
				c-3.947,0.236-7.701-1.781-9.611-5.184c-1.514-2.697-3.161-5.37-4.897-7.945c-2.188-3.246-2.291-7.516-0.263-10.88l9.803-16.25
				c1.389-2.303,0.989-5.204-0.974-7.054l-11.061-10.432c-1.979-1.864-4.945-2.117-7.215-0.615l-15.856,10.484
				c-3.27,2.163-7.553,2.27-10.916,0.286c-2.661-1.575-5.446-3.071-8.278-4.447c-3.538-1.719-5.786-5.366-5.726-9.292l0.293-18.908
				c0.042-2.686-1.776-5.005-4.421-5.637l-14.844-3.55c-2.66-0.641-5.35,0.61-6.556,3.032l-8.452,16.95
				c-1.756,3.517-5.404,5.646-9.311,5.67c-3.167-0.057-6.366,0.015-9.511,0.217c-3.877,0.241-7.625-1.794-9.544-5.204l-9.274-16.493
				c-1.326-2.356-4.082-3.467-6.698-2.704l-14.65,4.281c-2.609,0.763-4.309,3.167-4.134,5.849l1.232,18.884
				c0.256,3.911-1.783,7.654-5.195,9.537c-2.743,1.509-5.469,3.159-8.103,4.904c-3.235,2.144-7.51,2.238-10.891,0.234l-16.39-9.706
				c-2.344-1.389-5.293-0.991-7.174,0.969l-10.531,10.966c-1.868,1.945-2.123,4.863-0.621,7.094l10.573,15.71
				c2.192,3.253,2.304,7.52,0.284,10.872c-1.587,2.634-3.097,5.394-4.488,8.201c-1.735,3.506-5.478,5.711-9.351,5.674l-19.079-0.282
				c-2.731-0.081-5.076,1.756-5.715,4.377l-3.59,14.713c-0.637,2.607,0.619,5.261,3.055,6.453l17.1,8.369
				c3.551,1.741,5.798,5.372,5.724,9.253c-0.06,3.156,0.012,6.324,0.214,9.419c0.25,3.861-1.814,7.586-5.259,9.489l-16.646,9.196
				c-2.372,1.313-3.494,4.025-2.73,6.597l4.315,14.518c0.769,2.583,3.217,4.268,5.925,4.088l19.058-1.227
				c3.919-0.247,7.697,1.765,9.592,5.143c1.532,2.732,3.196,5.433,4.947,8.026c2.173,3.222,2.265,7.481,0.232,10.845l-9.8,16.246
				c-1.39,2.303-0.991,5.204,0.972,7.054l11.062,10.432c1.976,1.859,4.944,2.113,7.215,0.615l15.854-10.484
				C1178.474,998.499,1180.465,997.928,1182.456,997.928z M1246.831,968.745c-36.758,0-67.019-29.257-67.761-65.854
				c-0.363-17.956,6.351-34.981,18.905-47.935c12.549-12.952,29.433-20.284,47.54-20.651c0.467-0.009,0.938-0.013,1.404-0.013
				c36.759,0,67.019,29.257,67.761,65.854c0.363,17.959-6.351,34.981-18.905,47.937c-12.549,12.95-29.433,20.282-47.54,20.649
				C1247.768,968.741,1247.297,968.745,1246.831,968.745z M1246.917,838.771c-0.436,0-0.873,0.004-1.313,0.013
				c-16.917,0.341-32.691,7.192-44.412,19.289c-11.717,12.09-17.982,27.975-17.643,44.726c0.691,34.159,28.955,61.466,63.283,61.466
				c0.436,0,0.873-0.004,1.312-0.013c16.919-0.341,32.691-7.192,44.412-19.286c11.717-12.09,17.982-27.975,17.643-44.728
				C1309.509,866.079,1281.245,838.771,1246.917,838.771z"/>
		</g>
		<g>
			<g>
				<path style="fill:#d8d6dc;" stroke="#d8d6dc" d="M424.762,1964.445c22.959,5.473,46.708-0.211,70.16-2.924l577.406-59.704c29.664-3.088,51.971-28.303,51.262-57.944
					l-32.732-1368.996l-30.814-7.62c-25.338-6.04-51.528-7.732-77.439-5.004l-577.607,61.587
					c-28.009,2.959-49.259,26.448-49.259,54.448V1913.27c0,20.362,14.045,38.069,33.964,42.817L424.762,1964.445z"/>
				<g>
					<path style="fill:#00000;" d="M1076.743,1909.457l-617.764,64.84c-29.518,3.098-55.222-20.049-55.222-49.729V589.888
						c0-25.595,19.328-47.057,44.783-49.729l617.763-64.84c29.518-3.098,55.222,20.049,55.222,49.729v1334.679
						C1121.526,1885.322,1102.198,1906.785,1076.743,1909.457z"/>
					<path style="fill:#d8d6dc;" stroke="#d8d6dc" d="M453.781,1976.807c-12.843,0-25.352-4.749-34.981-13.42c-10.983-9.891-17.282-24.04-17.282-38.82V589.889
						c0-26.822,20.114-49.158,46.788-51.956l617.764-64.839c14.702-1.547,29.427,3.242,40.411,13.133
						c10.984,9.891,17.284,24.042,17.284,38.822v1334.679c0,26.822-20.115,49.158-46.788,51.956l-0.234-2.227l0.234,2.227
						l-617.764,64.839C457.401,1976.713,455.588,1976.807,453.781,1976.807z M1071.507,477.287c-1.653,0-3.311,0.087-4.969,0.26
						l-617.764,64.84c-24.387,2.559-42.776,22.981-42.776,47.502v1334.679c0,13.512,5.758,26.448,15.8,35.491
						c10.041,9.043,23.505,13.413,36.948,12.011l617.764-64.839c24.386-2.559,42.776-22.981,42.776-47.502V525.049
						c0-13.514-5.76-26.45-15.802-35.493C1094.682,481.629,1083.246,477.287,1071.507,477.287z"/>
				</g>
				<path style="fill:#d8d6dc;" stroke="#d8d6dc" d="M453.789,1976.807c-12.857,0-25.361-4.749-34.989-13.42c-10.983-9.891-17.282-24.04-17.282-38.82V589.889
					c0-26.822,20.114-49.158,46.788-51.956l617.764-64.839c14.702-1.547,29.427,3.242,40.411,13.133
					c10.984,9.891,17.284,24.042,17.284,38.822v550.003c0,1.236-1.003,2.24-2.24,2.24c-1.237,0-2.24-1.004-2.24-2.24V525.049
					c0-13.514-5.76-26.45-15.802-35.493c-10.039-9.043-23.509-13.407-36.946-12.009l-617.764,64.84
					c-24.387,2.559-42.776,22.981-42.776,47.502v1334.679c0,13.512,5.758,26.448,15.8,35.491
					c10.041,9.043,23.505,13.413,36.948,12.011l267.168-30.652c1.223-0.164,2.339,0.739,2.481,1.969
					c0.141,1.229-0.742,2.341-1.97,2.481l-267.19,30.654C457.418,1976.711,455.599,1976.807,453.789,1976.807z"/>
				<path style="fill:#d8d6dc;" stroke="#d8d6dc" d="M1076.74,1911.697c-1.132,0-2.103-0.855-2.225-2.006c-0.129-1.231,0.763-2.332,1.994-2.461
					c24.386-2.559,42.776-22.981,42.776-47.502v-784.676c0-1.238,1.003-2.24,2.24-2.24c1.237,0,2.24,1.002,2.24,2.24v784.676
					c0,26.822-20.115,49.158-46.788,51.956C1076.897,1911.692,1076.819,1911.697,1076.74,1911.697z"/>
				<g>
					<path style="fill:#00000;" d="M1088.319,558.834v1273.103c0,23.228-17.539,42.693-40.633,45.134l-560.629,58.843
						c-26.767,2.8-50.107-18.21-50.107-45.134V617.677c0-23.227,17.539-42.693,40.655-45.111l184.144-19.331v15.411
						c0,17.426,15.096,31.023,32.433,29.209l143.064-15.008c14.94-1.568,26.297-14.179,26.297-29.209v-21.593l174.669-18.322
						C1065.001,510.9,1088.319,531.911,1088.319,558.834z"/>
					<path style="fill:#d8d6dc;" stroke="#d8d6dc" d="M482.36,1938.399c-11.709,0-23.116-4.333-31.899-12.245c-10.01-9.019-15.75-21.911-15.75-35.373V617.675
						c0-24.442,18.34-44.794,42.662-47.336l184.143-19.332c0.632-0.076,1.262,0.138,1.734,0.562c0.471,0.424,0.74,1.03,0.74,1.665
						v15.413c0,7.671,3.27,15.017,8.973,20.153c5.704,5.136,13.35,7.634,20.987,6.827l143.063-15.006
						c13.849-1.457,24.291-13.057,24.291-26.984v-21.592c0-1.146,0.866-2.109,2.006-2.227l174.669-18.322
						c13.403-1.411,26.816,2.947,36.824,11.954c10.014,9.014,15.757,21.911,15.757,35.384v1273.103
						c0,24.431-18.329,44.792-42.637,47.36l-560.63,58.844C485.647,1938.313,483.999,1938.399,482.36,1938.399z M659.509,555.721
						l-181.67,19.072c-22.034,2.306-38.65,20.739-38.65,42.882v1273.105c0,12.195,5.201,23.873,14.27,32.043
						c9.071,8.172,21.235,12.134,33.365,10.863l560.628-58.844c22.02-2.33,38.626-20.774,38.626-42.906V558.834
						c0-12.204-5.203-23.887-14.274-32.052c-9.068-8.163-21.231-12.101-33.358-10.832l-172.664,18.112v19.575
						c0,16.226-12.168,29.742-28.303,31.438L694.416,600.08c-8.895,0.938-17.807-1.966-24.453-7.953
						c-6.643-5.983-10.454-14.542-10.454-23.48V555.721z"/>
				</g>
			</g>
			<g>
				<g>
					<path  style="fill:#00000;" d="M1025.928,1839.189l-520.421,55.978c-17.395,1.871-32.541-12.108-32.541-30.032v-713.32
						c0-15.457,11.389-28.418,26.39-30.031l520.421-55.978c17.395-1.871,32.541,12.108,32.541,30.032v713.32
						C1052.318,1824.614,1040.928,1837.576,1025.928,1839.189z"/>
					<path style="fill:#d8d6dc;" stroke="#d8d6dc" d="M502.453,1897.57c-7.656,0-15.139-2.85-20.937-8.056c-6.858-6.16-10.79-15.045-10.79-24.379v-713.32
						c0-16.648,12.205-30.517,28.391-32.258l520.42-55.978c8.762-0.947,17.604,1.927,24.232,7.881
						c6.856,6.16,10.788,15.045,10.788,24.377v713.32c0,16.651-12.206,30.519-28.391,32.258l-520.42,55.978
						C504.649,1897.511,503.548,1897.57,502.453,1897.57z M1022.935,1067.875c-0.967,0-1.94,0.052-2.919,0.157l-520.42,55.978
						c-13.904,1.496-24.39,13.451-24.39,27.804v713.32c0,8.065,3.392,15.734,9.304,21.045c5.766,5.178,13.135,7.573,20.758,6.759
						l520.42-55.978c13.904-1.494,24.39-13.448,24.39-27.804v-713.32c0-8.063-3.391-15.732-9.302-21.043
						C1035.75,1070.279,1029.503,1067.875,1022.935,1067.875z"/>
				</g>
				<g>
					<polygon style="fill:#00000;" points="736.019,1869.493 511.633,1664.127 583.112,1582.105 807.498,1787.471 					"/>
					<path style="fill:#d8d6dc;" stroke="#d8d6dc" d="M736.019,1871.733c-0.558,0-1.098-0.208-1.513-0.589L510.12,1665.778c-0.897-0.82-0.974-2.207-0.176-3.124
						l71.48-82.022c0.397-0.455,0.96-0.731,1.563-0.763c0.598-0.033,1.193,0.175,1.638,0.584l224.386,205.366
						c0.897,0.82,0.975,2.207,0.176,3.124l-71.48,82.022c-0.397,0.455-0.96,0.731-1.563,0.763
						C736.103,1871.73,736.06,1871.733,736.019,1871.733z M514.758,1663.949l221.081,202.341l68.535-78.642l-221.08-202.341
						L514.758,1663.949z"/>
				</g>
				<g>
					<path style="fill:#00000;" d="M987.144,1135.851l66.227,60.615v-55.294l-39.422-36.08l29.216-33.526
						c-5.943-5.287-13.922-8.186-22.455-7.269l-27.767,2.987l-9.009,10.338l-9.16-8.384l-54.06,5.815l36.414,33.328l-72.03,82.655
						l-80.425-73.608l31.49-36.135l-59.535,6.404l-2.746,3.151l-52.496,5.647l26.466,24.222l-72.03,82.655l-80.654-73.817
						l21.482-24.651l-59.536,6.405l-2.745,3.15l-32.31,3.476l16.29,14.908l-63.238,72.567v18.135l-3.199-2.928v55.294l78.269,71.635
						l-75.07,86.144v61.914l105.086-120.586l80.425,73.607l-188.71,216.545v61.914l218.725-250.988l80.653,73.818l-292.648,335.814
						c6.068,7.568,15.589,12.063,25.93,10.95l20.394-2.194l276.339-317.099l80.654,73.817l-197.016,226.075l59.536-6.404
						l167.495-192.201l80.652,73.818l-88.171,101.175l59.536-6.404l58.65-67.3l30.729,28.124v-55.292l-3.923-3.592l3.923-4.502
						v-61.913l-33.938,38.944l-80.654-73.817l72.03-82.654l42.562,38.953v-55.294l-15.756-14.421l15.756-18.079v-61.914
						l-45.771,52.522l-80.653-73.817l72.029-82.654l54.395,49.784v-55.294l-27.589-25.25l27.589-31.657v-61.914l-57.604,66.101
						l-80.654-73.817L987.144,1135.851z M777.87,1148.187l80.424,73.608l-72.03,82.655l-80.425-73.608L777.87,1148.187z
						 M496.335,1242.968l72.03-82.655l80.653,73.818l-72.03,82.654L496.335,1242.968z M607.003,1344.256l72.031-82.654
						l80.424,73.608l-72.029,82.654L607.003,1344.256z M717.443,1445.334l72.029-82.654l80.655,73.817l-72.031,82.655
						L717.443,1445.334z M980.795,1537.784l-72.031,82.655l-80.654-73.817l72.031-82.655L980.795,1537.784z M968.963,1323.084
						l-72.031,82.654l-80.654-73.817l72.031-82.655L968.963,1323.084z"/>
					<path style="fill:#d8d6dc;" stroke="#d8d6dc" d="M501.478,1899.082c-9.461,0-18.465-4.327-24.583-11.954c-0.678-0.847-0.653-2.056,0.059-2.874l291.212-334.166
						l-77.348-70.792l-217.216,249.259c-0.615,0.704-1.601,0.956-2.474,0.626c-0.875-0.328-1.455-1.164-1.455-2.098v-61.915
						c0-0.54,0.196-1.063,0.551-1.472l187.274-214.894l-77.12-70.581l-103.578,118.853c-0.613,0.704-1.6,0.956-2.474,0.626
						c-0.875-0.328-1.455-1.164-1.455-2.098v-61.913c0-0.54,0.196-1.063,0.551-1.472l73.634-84.496l-76.657-70.159
						c-0.464-0.424-0.727-1.024-0.727-1.651v-55.294c0-0.888,0.525-1.693,1.337-2.05c0.606-0.269,1.284-0.252,1.863,0.026v-13.184
						c0-0.54,0.196-1.063,0.551-1.472l61.802-70.916l-14.678-13.435c-0.65-0.593-0.89-1.514-0.616-2.349
						c0.274-0.838,1.014-1.435,1.889-1.529l31.438-3.382l2.169-2.489c0.371-0.424,0.888-0.696,1.449-0.755l59.536-6.405
						c0.907-0.103,1.799,0.374,2.226,1.192c0.426,0.816,0.308,1.811-0.298,2.507l-20.046,23.001l77.348,70.792l69.085-79.274
						l-24.853-22.749c-0.65-0.593-0.89-1.514-0.616-2.349c0.274-0.838,1.014-1.435,1.889-1.529l51.623-5.552l2.17-2.491
						c0.371-0.424,0.888-0.696,1.449-0.755l59.535-6.403c0.915-0.103,1.799,0.374,2.226,1.192c0.427,0.816,0.308,1.811-0.297,2.507
						L807.8,1117.25l77.12,70.584l69.085-79.277l-34.802-31.853c-0.65-0.593-0.89-1.514-0.616-2.349
						c0.275-0.838,1.014-1.435,1.889-1.529l54.06-5.814c0.639-0.07,1.276,0.14,1.752,0.575l7.467,6.833l7.501-8.608
						c0.371-0.424,0.888-0.696,1.449-0.755l27.767-2.986c8.852-0.949,17.44,1.824,24.183,7.82c0.918,0.816,1.007,2.218,0.2,3.146
						l-27.78,31.877l37.81,34.607c0.464,0.424,0.727,1.024,0.727,1.651v55.294c0,0.888-0.525,1.693-1.338,2.05
						c-0.811,0.361-1.76,0.203-2.415-0.398l-64.534-59.065l-69.085,79.276l77.348,70.792l56.095-64.371
						c0.615-0.702,1.602-0.951,2.474-0.625c0.875,0.328,1.455,1.164,1.455,2.098v61.915c0,0.54-0.196,1.063-0.551,1.472
						l-26.153,30.007l25.977,23.777c0.464,0.424,0.727,1.024,0.727,1.651v55.294c0,0.888-0.525,1.693-1.338,2.05
						c-0.811,0.359-1.76,0.203-2.415-0.398l-52.702-48.235l-69.085,79.274l77.348,70.792l44.262-50.79
						c0.615-0.702,1.602-0.954,2.474-0.626c0.875,0.328,1.455,1.164,1.455,2.098v61.913c0,0.54-0.196,1.063-0.551,1.472
						l-14.32,16.43l14.144,12.947c0.464,0.424,0.727,1.024,0.727,1.652v55.294c0,0.888-0.525,1.693-1.338,2.05
						c-0.811,0.359-1.76,0.203-2.415-0.398l-40.869-37.403l-69.085,79.274l77.348,70.791l32.43-37.214
						c0.615-0.702,1.602-0.952,2.474-0.626c0.875,0.328,1.455,1.164,1.455,2.098v61.913c0,0.54-0.196,1.063-0.551,1.472
						l-2.487,2.852l2.311,2.117c0.464,0.424,0.727,1.024,0.727,1.651v55.294c0,0.888-0.525,1.693-1.338,2.05
						c-0.811,0.359-1.76,0.204-2.415-0.398l-29.036-26.575l-57.142,65.572c-0.371,0.424-0.888,0.696-1.449,0.755l-59.536,6.403
						c-0.921,0.103-1.8-0.376-2.226-1.192c-0.427-0.816-0.308-1.811,0.297-2.507l86.734-99.526l-77.347-70.792l-165.987,190.47
						c-0.371,0.424-0.888,0.696-1.449,0.755l-59.536,6.405c-0.925,0.09-1.8-0.374-2.226-1.192c-0.427-0.816-0.308-1.811,0.298-2.507
						l195.579-224.427l-77.348-70.792l-274.831,315.369c-0.371,0.424-0.888,0.696-1.449,0.755l-20.395,2.194
						C503.697,1899.023,502.584,1899.082,501.478,1899.082z M481.602,1885.739c5.851,6.389,14.212,9.629,22.731,8.71l19.522-2.1
						l275.763-316.439c0.397-0.455,0.96-0.731,1.563-0.763c0.593-0.029,1.193,0.175,1.638,0.584l80.654,73.817
						c0.897,0.82,0.974,2.207,0.176,3.124l-193.26,221.765l52.979-5.698l166.919-191.539c0.397-0.455,0.96-0.731,1.563-0.763
						c0.596-0.031,1.192,0.175,1.638,0.584l80.652,73.817c0.897,0.82,0.974,2.207,0.176,3.124l-84.415,96.863l52.979-5.696
						l58.074-66.642c0.397-0.455,0.96-0.731,1.563-0.763c0.599-0.031,1.192,0.173,1.638,0.584l26.976,24.692v-49.221l-3.196-2.927
						c-0.897-0.82-0.975-2.207-0.176-3.124l3.372-3.869v-55.092l-30.009,34.437c-0.397,0.455-0.96,0.731-1.563,0.763
						c-0.615,0.035-1.193-0.175-1.638-0.584l-80.654-73.817c-0.897-0.82-0.974-2.207-0.176-3.124l72.03-82.654
						c0.397-0.455,0.96-0.731,1.563-0.763c0.597-0.039,1.192,0.173,1.638,0.584l38.809,35.519v-49.221l-15.029-13.757
						c-0.897-0.82-0.974-2.207-0.176-3.124l15.205-17.447v-55.092l-41.842,48.012c-0.397,0.455-0.96,0.731-1.563,0.763
						c-0.602,0.031-1.193-0.177-1.638-0.584l-80.653-73.817c-0.897-0.82-0.975-2.207-0.176-3.124l72.03-82.654
						c0.397-0.455,0.96-0.731,1.563-0.763c0.595-0.042,1.192,0.175,1.638,0.584l50.642,46.351v-49.221l-26.862-24.587
						c-0.897-0.82-0.974-2.207-0.176-3.124l27.038-31.024v-55.094l-53.675,61.593c-0.397,0.455-0.96,0.731-1.563,0.764
						c-0.604,0.024-1.193-0.177-1.638-0.584l-80.654-73.817c-0.897-0.82-0.974-2.207-0.176-3.124l72.03-82.656
						c0.397-0.455,0.96-0.731,1.563-0.763c0.593-0.048,1.193,0.175,1.638,0.584l62.475,57.181v-49.221l-38.694-35.417
						c-0.897-0.82-0.974-2.207-0.176-3.124l27.703-31.79c-5.493-4.165-12.169-6.042-19.013-5.305l-26.894,2.892l-8.432,9.677
						c-0.397,0.455-0.96,0.731-1.563,0.763c-0.606,0.018-1.194-0.175-1.638-0.584l-8.414-7.7l-48.122,5.175l32.755,29.979
						c0.897,0.82,0.975,2.207,0.176,3.124l-72.03,82.656c-0.397,0.455-0.96,0.731-1.563,0.763c-0.592,0.031-1.193-0.175-1.638-0.584
						l-80.425-73.609c-0.897-0.82-0.974-2.207-0.176-3.124l27.734-31.823l-52.978,5.696l-2.17,2.491
						c-0.371,0.424-0.888,0.696-1.449,0.755l-47.564,5.116l22.807,20.875c0.897,0.82,0.975,2.207,0.176,3.124l-72.03,82.654
						c-0.397,0.455-0.96,0.731-1.563,0.763c-0.603,0.015-1.193-0.175-1.638-0.584l-80.654-73.817
						c-0.897-0.82-0.975-2.207-0.176-3.124l17.726-20.339l-52.979,5.698l-2.169,2.489c-0.371,0.424-0.888,0.696-1.449,0.755
						l-27.379,2.946l12.631,11.561c0.897,0.82,0.974,2.207,0.176,3.124l-62.687,71.933v17.294c0,0.888-0.525,1.693-1.337,2.05
						c-0.606,0.269-1.284,0.251-1.862-0.026v49.357l77.542,70.969c0.897,0.82,0.974,2.207,0.176,3.124l-74.519,85.513v55.092
						l101.157-116.076c0.397-0.455,0.96-0.731,1.563-0.763c0.611-0.022,1.193,0.175,1.638,0.584l80.425,73.607
						c0.897,0.82,0.974,2.207,0.176,3.124l-188.159,215.912v55.094l214.796-246.481c0.397-0.455,0.96-0.731,1.563-0.763
						c0.59-0.026,1.193,0.175,1.638,0.584l80.654,73.817c0.897,0.82,0.974,2.207,0.176,3.124L481.602,1885.739z M908.765,1622.679
						c-0.559,0-1.098-0.208-1.513-0.588l-80.654-73.817c-0.897-0.82-0.974-2.207-0.176-3.124l72.031-82.656
						c0.397-0.455,0.96-0.731,1.563-0.763c0.594-0.035,1.192,0.173,1.638,0.584l80.654,73.817c0.897,0.82,0.974,2.207,0.176,3.124
						l-72.031,82.656c-0.397,0.455-0.96,0.731-1.563,0.764C908.849,1622.677,908.806,1622.679,908.765,1622.679z M831.236,1546.446
						l77.348,70.792l69.086-79.277l-77.348-70.792L831.236,1546.446z M798.096,1521.391c-0.558,0-1.098-0.208-1.513-0.588
						l-80.653-73.817c-0.897-0.82-0.974-2.207-0.176-3.124l72.029-82.654c0.397-0.455,0.96-0.731,1.563-0.763
						c0.591-0.033,1.193,0.175,1.638,0.584l80.655,73.817c0.897,0.82,0.975,2.207,0.176,3.124l-72.031,82.654
						c-0.397,0.455-0.96,0.731-1.563,0.763C798.181,1521.389,798.139,1521.391,798.096,1521.391z M720.568,1445.157l77.348,70.792
						l69.086-79.274l-77.349-70.792L720.568,1445.157z M687.428,1420.104c-0.558,0-1.098-0.208-1.513-0.588l-80.425-73.609
						c-0.897-0.82-0.974-2.207-0.176-3.124l72.031-82.654c0.397-0.455,0.96-0.731,1.563-0.764c0.605-0.026,1.193,0.175,1.638,0.584
						l80.424,73.609c0.897,0.82,0.974,2.207,0.176,3.124l-72.029,82.654c-0.397,0.455-0.96,0.731-1.563,0.763
						C687.513,1420.102,687.47,1420.104,687.428,1420.104z M610.128,1344.078l77.12,70.584l69.085-79.274l-77.119-70.584
						L610.128,1344.078z M896.932,1407.977c-0.559,0-1.098-0.208-1.513-0.588l-80.654-73.817c-0.897-0.82-0.974-2.207-0.176-3.124
						l72.031-82.654c0.397-0.455,0.96-0.731,1.563-0.763c0.592-0.042,1.193,0.175,1.638,0.584l80.653,73.817
						c0.897,0.82,0.974,2.207,0.176,3.124l-72.031,82.654c-0.397,0.455-0.96,0.731-1.563,0.763
						C897.016,1407.975,896.973,1407.977,896.932,1407.977z M819.403,1331.744l77.348,70.792l69.086-79.274l-77.348-70.791
						L819.403,1331.744z M576.989,1319.024c-0.558,0-1.098-0.208-1.513-0.588l-80.654-73.817c-0.897-0.82-0.974-2.207-0.176-3.124
						l72.03-82.654c0.397-0.455,0.96-0.731,1.563-0.763c0.592-0.033,1.193,0.175,1.638,0.584l80.653,73.817
						c0.897,0.82,0.974,2.207,0.176,3.124l-72.029,82.654c-0.397,0.455-0.96,0.731-1.563,0.763
						C577.073,1319.022,577.031,1319.024,576.989,1319.024z M499.46,1242.79l77.348,70.792l69.085-79.274l-77.348-70.792
						L499.46,1242.79z M786.264,1306.691c-0.559,0-1.098-0.208-1.513-0.588l-80.425-73.609c-0.897-0.82-0.974-2.207-0.176-3.124
						l72.031-82.656c0.397-0.455,0.96-0.731,1.563-0.763c0.596-0.042,1.192,0.175,1.638,0.584l80.424,73.609
						c0.897,0.82,0.974,2.207,0.176,3.124l-72.03,82.656c-0.397,0.455-0.96,0.731-1.563,0.763
						C786.348,1306.689,786.305,1306.691,786.264,1306.691z M708.964,1230.665l77.12,70.584l69.085-79.276l-77.119-70.584
						L708.964,1230.665z"/>
				</g>
			</g>
			<g>
				<circle cx="566.089" cy="954.936" r="19.77"/>
				<g>
					<path style="fill:#d8d6dc;" stroke="#d8d6dc" d="M566.089,665.31c-45.413,0-82.225,36.707-82.225,81.988c0,11.32,5.138,27.149,12.848,44.529
						c19.429,43.806,55.185,97.45,66.116,113.478c1.568,2.296,4.951,2.302,6.517,0.006c15.264-22.378,78.968-118.158,78.968-158.013
						C648.313,702.017,611.499,665.31,566.089,665.31z"/>
					<ellipse style="fill:#00000;" cx="566.089" cy="748.921" rx="44.522" ry="44.393"/>
				</g>
			</g>
			<g>
				<g>
					<g>
						<path  style="fill:#00000;" d="M887.779,624.371c86.126-12.104,155.559,53.5,155.386,146.455
							c-0.172,92.67-69.885,177.83-156.011,189.934c-86.126,12.104-155.815-53.464-155.643-146.134
							C731.684,721.672,801.653,636.476,887.779,624.371z"/>
						<path style="fill:#d8d6dc;" stroke="#d8d6dc" d="M866.843,964.438c-32.714,0-63.272-11.193-87.658-32.431c-31.808-27.704-50.001-70.49-49.914-117.386
							c0.174-93.891,71.139-180.232,158.195-192.469c40.28-5.657,78.627,5.298,107.973,30.856
							c31.841,27.732,50.052,70.676,49.965,117.821c-0.174,93.735-71.025,179.933-157.939,192.15
							C880.523,963.955,873.636,964.438,866.843,964.438z M888.09,626.589c-84.933,11.937-154.169,96.292-154.339,188.042
							c-0.085,45.597,17.547,87.149,48.376,113.997c28.454,24.784,65.644,35.406,104.715,29.915
							c84.792-11.917,153.913-96.128,154.083-187.722c0.085-45.846-17.566-87.556-48.427-114.435
							C964.146,631.697,927.067,621.11,888.09,626.589z"/>
					</g>
				</g>
				<g>
					<path style="fill:#d8d6dc;" stroke="#d8d6dc" d="M850.324,871.464l-0.049,26.357c-0.005,2.537-1.911,4.876-4.261,5.207l-12.451,1.75
						c-2.351,0.33-4.267-1.472-4.262-4.009l0.049-26.357L850.324,871.464z"/>
					<path style="fill:#d8d6dc;" stroke="#d8d6dc" d="M945.007,858.158l-0.049,26.357c-0.005,2.537-1.928,4.879-4.278,5.209l-12.452,1.75
						c-2.351,0.33-4.249-1.474-4.245-4.011l0.049-26.357L945.007,858.158z"/>
					<g>
						<path style="fill:#00000;" d="M947.723,680.409c5.652-0.794,10.218,3.52,10.206,9.621l-0.297,160.022
							c-0.007,3.486-2.649,6.703-5.897,7.16l-6.729,0.946l-20.975,2.948l-73.708,10.359l-20.975,2.948l-6.729,0.946
							c-3.247,0.456-5.88-2.02-5.874-5.505l0.289-155.568c0.016-8.56,6.47-16.418,14.401-17.532L947.723,680.409z"/>
						<path style="fill:#d8d6dc;" stroke="#d8d6dc" d="M821.843,877.653c-1.75,0-3.394-0.606-4.714-1.754c-1.671-1.457-2.627-3.662-2.623-6.05l0.289-155.567
							c0.019-9.627,7.344-18.484,16.329-19.746l116.287-16.344c3.252-0.459,6.362,0.44,8.755,2.524
							c2.552,2.22,4.011,5.62,4.004,9.321l-0.298,160.021c-0.009,4.642-3.446,8.761-7.827,9.373l-129.115,18.147
							C822.565,877.628,822.202,877.653,821.843,877.653z M948.034,682.627l-116.287,16.344
							c-6.863,0.965-12.458,7.835-12.473,15.319l-0.289,155.567c-0.002,1.107,0.383,2.052,1.085,2.662
							c0.605,0.525,1.381,0.742,2.235,0.621l129.117-18.147c2.147-0.302,3.965-2.566,3.969-4.946l0.298-160.021
							c0.004-2.437-0.872-4.546-2.466-5.935C951.824,682.874,949.98,682.355,948.034,682.627z"/>
					</g>
					<g>
						<path style="fill:#00000;" d="M930.777,822.52c5.885-0.827,10.63,3.656,10.618,10.008
							c-0.012,6.333-4.776,12.152-10.661,12.979c-5.885,0.827-10.648-3.654-10.636-9.986
							C920.11,829.169,924.891,823.347,930.777,822.52z"/>
						<path style="fill:#d8d6dc;" stroke="#d8d6dc" d="M929.334,847.845c-2.734,0-5.296-0.941-7.348-2.728c-2.631-2.29-4.136-5.79-4.129-9.601
							c0.014-7.413,5.67-14.238,12.606-15.216c0.001,0,0.001,0,0.001,0c3.361-0.475,6.569,0.451,9.038,2.601
							c2.633,2.292,4.139,5.803,4.132,9.631c-0.014,7.404-5.662,14.218-12.59,15.192
							C930.469,847.805,929.898,847.845,929.334,847.845z M931.089,824.737c-4.816,0.678-8.742,5.519-8.752,10.788
							c-0.004,2.548,0.915,4.755,2.59,6.212c1.481,1.291,3.433,1.842,5.494,1.551c4.807-0.676,8.724-5.504,8.734-10.764
							c0.004-2.566-0.917-4.784-2.594-6.243C935.088,824.997,933.14,824.448,931.089,824.737z"/>
					</g>
					<g>
						<path style="fill:#00000;" d="M843.719,834.755c5.885-0.827,10.649,3.653,10.637,10.005
							c-0.012,6.333-4.794,12.155-10.68,12.982s-10.63-3.656-10.619-9.989C833.069,841.401,837.833,835.582,843.719,834.755z"/>
						<path style="fill:#d8d6dc;" stroke="#d8d6dc" d="M842.28,860.081c-2.73,0-5.287-0.941-7.336-2.723c-2.629-2.29-4.134-5.792-4.128-9.609
							c0.014-7.413,5.662-14.238,12.59-15.211c3.375-0.477,6.584,0.453,9.058,2.61c2.633,2.292,4.139,5.799,4.131,9.618
							c-0.014,7.404-5.67,14.22-12.608,15.196C843.413,860.042,842.844,860.081,842.28,860.081z M845.096,836.899
							c-0.351,0-0.707,0.024-1.065,0.074c-4.806,0.676-8.723,5.512-8.733,10.784c-0.004,2.555,0.915,4.764,2.59,6.223
							c1.475,1.284,3.417,1.833,5.477,1.544c4.816-0.676,8.742-5.508,8.752-10.769c0.004-2.557-0.917-4.771-2.593-6.232
							C848.3,837.459,846.757,836.899,845.096,836.899z"/>
					</g>
					<g>
						<path style="fill:#00000;" d="M931.069,732.624c5.777-0.812,10.469,3.582,10.457,9.837l-0.095,51.03
							c-0.012,6.255-4.722,11.97-10.499,12.782l-87.291,12.268c-5.796,0.815-10.487-3.579-10.476-9.835l0.095-51.03
							c0.012-6.255,4.722-11.97,10.518-12.785L931.069,732.624z"/>
						<path style="fill:#d8d6dc;" stroke="#d8d6dc" d="M842.263,820.88c-2.706,0-5.239-0.932-7.266-2.697c-2.594-2.26-4.078-5.716-4.071-9.48l0.094-51.03
							c0.014-7.306,5.598-14.034,12.445-14.999l87.291-12.267c3.313-0.466,6.493,0.446,8.936,2.575
							c2.595,2.26,4.081,5.716,4.074,9.485l-0.095,51.03c-0.014,7.308-5.589,14.034-12.428,14.995l-87.29,12.269
							C843.385,820.841,842.82,820.88,842.263,820.88z M931.38,734.842l-87.29,12.267c-4.726,0.665-8.58,5.407-8.59,10.572
							l-0.094,51.03c-0.004,2.502,0.895,4.666,2.533,6.094c1.45,1.264,3.361,1.805,5.391,1.518l87.29-12.269
							c4.716-0.663,8.562-5.403,8.571-10.567l0.095-51.03c0.004-2.505-0.897-4.67-2.536-6.099
							C935.302,735.098,933.397,734.554,931.38,734.842z"/>
					</g>
					<g>
						<path style="fill:#00000;" d="M919.147,700.166c4.844-0.681,8.747,3.011,8.738,8.22c-0.01,5.229-3.929,10.02-8.773,10.7
							l-63.338,8.902c-4.845,0.681-8.748-3.01-8.739-8.239c0.01-5.21,3.929-10.001,8.774-10.681L919.147,700.166z"/>
						<path style="fill:#d8d6dc;" stroke="#d8d6dc" d="M854.625,730.31c-2.342,0-4.536-0.807-6.293-2.338c-2.253-1.962-3.543-4.961-3.536-8.227
							c0.012-6.389,4.713-12.055,10.702-12.895l63.338-8.903c2.885-0.413,5.636,0.389,7.758,2.236
							c2.251,1.962,3.538,4.952,3.532,8.207c-0.012,6.4-4.713,12.074-10.701,12.914l-63.338,8.903
							C855.595,730.277,855.107,730.31,854.625,730.31z M919.459,702.383l-63.338,8.903c-3.703,0.521-6.838,4.397-6.846,8.468
							c-0.003,1.995,0.707,3.714,1.999,4.841c1.124,0.98,2.609,1.396,4.188,1.177l63.338-8.903c3.767-0.529,6.837-4.336,6.844-8.487
							c0.003-1.984-0.704-3.697-1.995-4.819C922.523,702.58,921.033,702.154,919.459,702.383z"/>
					</g>
				</g>
			</g>
			<path style="fill:#d8d6dc;" stroke="#d8d6dc" d="M479.778,1070.073c-0.55,0-1.085-0.203-1.497-0.575c-0.473-0.424-0.743-1.03-0.743-1.665v-44.798
				c0-1.146,0.864-2.107,2.003-2.227l210.552-22.399c0.638-0.07,1.262,0.136,1.735,0.562c0.472,0.424,0.743,1.03,0.743,1.665v44.798
				c0,1.146-0.864,2.106-2.003,2.227l-210.552,22.399C479.935,1070.069,479.856,1070.073,479.778,1070.073z M482.017,1025.05v40.292
				l206.073-21.922v-40.292L482.017,1025.05z M690.33,1045.434h0.022H690.33z"/>
		</g>
		<g>
			<g>
				<g>
					<path style="fill:#00000;" d="M1618.626,1243.759l261.39,45.697l258.888-45.356c0.444-0.078,0.444-0.72,0-0.798
						l-261.852-45.85L1618.626,1243.759z"/>
					<path style="fill:#d8d6dc;" stroke="#d8d6dc" d="M1880.016,1291.696c-0.129,0-0.258-0.011-0.386-0.033l-261.389-45.697c-1.07-0.188-1.852-1.116-1.854-2.203
						c-0.002-1.087,0.775-2.017,1.845-2.209l258.425-46.308c0.257-0.048,0.522-0.046,0.781-0.002l261.852,45.851
						c1.27,0.225,2.187,1.321,2.187,2.607c0,1.284-0.917,2.38-2.182,2.603l-258.893,45.358
						C1880.275,1291.685,1880.145,1291.696,1880.016,1291.696z M1631.478,1243.733l248.538,43.449l248.184-43.479l-251.143-43.976
						L1631.478,1243.733z"/>
				</g>
				<g>
					<polygon style="fill:#00000;" points="1879.966,1676.739 1879.966,1289.076 1617.551,1243.597 1617.551,1630.197 					"/>
					<path style="fill:#d8d6dc;" stroke="#d8d6dc" d="M1879.966,1678.979c-0.13,0-0.261-0.011-0.391-0.035l-262.416-46.542c-1.068-0.188-1.848-1.118-1.848-2.205v-386.6
						c0-0.661,0.292-1.288,0.797-1.713c0.505-0.429,1.164-0.61,1.825-0.494l262.416,45.479c1.073,0.186,1.857,1.118,1.857,2.207
						v387.663c0,0.663-0.293,1.291-0.801,1.717C1880.999,1678.795,1880.488,1678.979,1879.966,1678.979z M1619.79,1628.321
						l257.936,45.745v-383.105l-257.936-44.702V1628.321z"/>
				</g>
				<g>
					<polygon style="fill:#00000;" points="1879.966,1676.739 1879.966,1289.076 2140.105,1243.54 2140.105,1630.423 					"/>
					<path style="fill:#d8d6dc;" stroke="#d8d6dc" d="M1879.966,1678.979c-0.522,0-1.032-0.182-1.438-0.523c-0.509-0.427-0.802-1.054-0.802-1.717v-387.663
						c0-1.087,0.782-2.019,1.854-2.207l260.139-45.536c0.647-0.114,1.321,0.068,1.827,0.492c0.507,0.427,0.799,1.054,0.799,1.715
						v386.883c0,1.085-0.779,2.015-1.847,2.205l-260.139,46.317C1880.229,1678.968,1880.097,1678.979,1879.966,1678.979z
						 M1882.206,1290.957v383.109l255.659-45.52v-382.339L1882.206,1290.957z"/>
				</g>
			</g>
			<g>
				<g>
					<path style="fill:#00000;" d="M1602.269,941.851l197.01,34.442l194.81-34.13c0.396-0.069,0.396-0.642,0-0.711l-197.045-34.502
						L1602.269,941.851z"/>
					<path style="fill:#d8d6dc;" stroke="#d8d6dc" d="M1799.279,978.532c-0.129,0-0.258-0.011-0.386-0.033l-197.01-34.441c-1.07-0.188-1.852-1.116-1.854-2.203
						c-0.002-1.087,0.775-2.017,1.845-2.209l194.776-34.903c0.257-0.048,0.522-0.046,0.781-0.002l197.044,34.502
						c1.251,0.221,2.155,1.302,2.15,2.57c-0.003,1.266-0.911,2.343-2.158,2.555l-194.802,34.13
						C1799.538,978.521,1799.408,978.532,1799.279,978.532z M1615.12,941.825l184.159,32.192l183.856-32.21l-186.086-32.584
						L1615.12,941.825z M1993.702,939.955c-0.004,0.002-0.009,0.002-0.013,0.002L1993.702,939.955z"/>
				</g>
				<g>
					<polygon style="fill:#00000;" points="1799.241,1268.188 1799.241,976.006 1601.458,941.729 1601.458,1233.109 					"/>
					<polygon style="fill:#d8d6dc;" stroke="#d8d6dc" points="1722.258,1001.119 1722.258,963.431 1672.271,954.768 1672.271,992.253 					"/>
					<path style="fill:#d8d6dc;" stroke="#d8d6dc" d="M1799.241,1270.428c-0.13,0-0.261-0.011-0.391-0.035l-197.782-35.08c-1.07-0.188-1.848-1.118-1.848-2.205v-291.38
						c0-0.661,0.292-1.288,0.797-1.713c0.505-0.429,1.166-0.608,1.825-0.494l197.782,34.277c1.073,0.186,1.857,1.118,1.857,2.207
						v292.182c0,0.663-0.293,1.291-0.801,1.717C1800.273,1270.244,1799.762,1270.428,1799.241,1270.428z M1603.698,1231.232
						l193.302,34.284V977.891l-193.302-33.5V1231.232z"/>
				</g>
				<g>
					<polygon style="fill:#00000;" points="1799.241,1268.188 1799.241,976.006 1995.308,941.685 1995.308,1233.28 					"/>
					<path style="fill:#d8d6dc;" stroke="#d8d6dc" d="M1799.241,1270.428c-0.522,0-1.032-0.182-1.438-0.523c-0.509-0.426-0.802-1.054-0.802-1.717V976.006
						c0-1.087,0.782-2.019,1.854-2.207l196.067-34.321c0.649-0.116,1.321,0.068,1.827,0.492c0.507,0.427,0.799,1.054,0.799,1.715
						v291.594c0,1.085-0.779,2.015-1.847,2.205l-196.067,34.909C1799.503,1270.417,1799.371,1270.428,1799.241,1270.428z
						 M1801.481,977.887v287.628l191.587-34.113V944.351L1801.481,977.887z"/>
				</g>
			</g>
			<g>
				<g>
					<path style="fill:#00000;" d="M1197.111,1215.15l322.105,56.312l319.522-55.979c0.45-0.079,0.45-0.729,0-0.807
						l-323.176-56.588L1197.111,1215.15z"/>
					<path style="fill:#d8d6dc;" stroke="#d8d6dc" d="M1519.216,1273.703c-0.129,0-0.258-0.011-0.386-0.033l-322.105-56.313c-1.07-0.188-1.852-1.116-1.854-2.203
						s0.775-2.017,1.845-2.209l318.452-57.063c0.257-0.048,0.522-0.046,0.781-0.002l323.175,56.589
						c1.27,0.223,2.191,1.321,2.191,2.612c0,1.288-0.921,2.386-2.191,2.61l-319.522,55.98
						C1519.475,1273.692,1519.345,1273.703,1519.216,1273.703z M1209.962,1215.124l309.253,54.064l308.844-54.108l-312.492-54.718
						L1209.962,1215.124z"/>
				</g>
				<g>
					<polygon style="fill:#00000;" points="1519.154,1748.702 1519.154,1270.993 1195.786,1214.951 1195.786,1691.349 					"/>
					<polygon style="fill:#d8d6dc;" stroke="#d8d6dc" points="1392.679,1301.771 1392.679,1248.679 1322.26,1236.475 1322.26,1289.282 					"/>
					<path style="fill:#d8d6dc;" stroke="#d8d6dc" d="M1519.153,1750.941c-0.13,0-0.261-0.011-0.391-0.035l-323.367-57.352c-1.07-0.188-1.848-1.118-1.848-2.205v-476.398
						c0-0.661,0.292-1.288,0.797-1.713c0.505-0.427,1.165-0.608,1.825-0.494l323.367,56.042c1.073,0.186,1.857,1.118,1.857,2.207
						v477.709c0,0.663-0.293,1.291-0.801,1.717C1520.186,1750.759,1519.675,1750.941,1519.153,1750.941z M1198.026,1689.472
						l318.888,56.556v-473.15l-318.888-55.265V1689.472z"/>
				</g>
				<g>
					<g>
						<polygon style="fill:#00000;" points="1519.154,1748.702 1519.154,1270.993 1839.718,1214.88 1839.718,1691.627 						"/>
						<path style="fill:#d8d6dc;" stroke="#d8d6dc" d="M1519.153,1750.941c-0.522,0-1.032-0.182-1.438-0.523c-0.509-0.427-0.802-1.054-0.802-1.717v-477.709
							c0-1.087,0.782-2.019,1.854-2.207l320.564-56.112c0.652-0.116,1.321,0.068,1.827,0.492c0.507,0.427,0.799,1.054,0.799,1.715
							v476.746c0,1.085-0.779,2.015-1.847,2.205l-320.564,57.074C1519.416,1750.93,1519.284,1750.941,1519.153,1750.941z
							 M1521.394,1272.874v473.154l316.084-56.278v-472.203L1521.394,1272.874z"/>
					</g>
				</g>
			</g>
			<g>
				<path style="fill:#d8d6dc;" stroke="#d8d6dc" d="M1438.484,1566.598c-0.107,0-0.214-0.009-0.323-0.024l-165.003-23.992c-1.1-0.16-1.917-1.102-1.917-2.216v-178.548
					c0-0.65,0.281-1.266,0.771-1.691c0.49-0.424,1.14-0.621,1.783-0.527l165.003,23.32c1.105,0.155,1.926,1.102,1.926,2.218v179.22
					c0,0.65-0.282,1.269-0.774,1.693C1439.539,1566.406,1439.019,1566.598,1438.484,1566.598z M1275.721,1538.429l160.523,23.34
					v-174.685l-160.523-22.686V1538.429z"/>
				<g>
					<path style="fill:#d8d6dc;" stroke="#d8d6dc" d="M1295.665,1521.246c-1.237,0-2.24-1.002-2.24-2.24v-131.783c0-1.238,1.003-2.24,2.24-2.24
						c1.237,0,2.24,1.002,2.24,2.24v131.783C1297.905,1520.245,1296.902,1521.246,1295.665,1521.246z"/>
					<path style="fill:#d8d6dc;" stroke="#d8d6dc" d="M1315.879,1524.897c-1.237,0-2.24-1.002-2.24-2.24v-131.786c0-1.238,1.003-2.24,2.24-2.24
						c1.237,0,2.24,1.002,2.24,2.24v131.786C1318.119,1523.895,1317.116,1524.897,1315.879,1524.897z"/>
					<path style="fill:#d8d6dc;" stroke="#d8d6dc" d="M1336.093,1528.548c-1.237,0-2.24-1.002-2.24-2.24v-131.786c0-1.238,1.003-2.24,2.24-2.24
						c1.237,0,2.24,1.002,2.24,2.24v131.786C1338.333,1527.546,1337.33,1528.548,1336.093,1528.548z"/>
					<path style="fill:#d8d6dc;" stroke="#d8d6dc" d="M1356.307,1532.197c-1.237,0-2.24-1.002-2.24-2.24v-131.783c0-1.238,1.003-2.24,2.24-2.24
						c1.237,0,2.24,1.002,2.24,2.24v131.783C1358.547,1531.195,1357.544,1532.197,1356.307,1532.197z"/>
					<path style="fill:#d8d6dc;" stroke="#d8d6dc" d="M1384.636,1530.633c-1.237,0-2.24-1.002-2.24-2.24v-124.25c0-1.238,1.003-2.24,2.24-2.24c1.237,0,2.24,1.002,2.24,2.24
						v124.25C1386.876,1529.631,1385.873,1530.633,1384.636,1530.633z"/>
					<path style="fill:#d8d6dc;" stroke="#d8d6dc" d="M1416.95,1543.149c-1.237,0-2.24-1.002-2.24-2.24v-131.786c0-1.238,1.003-2.24,2.24-2.24c1.237,0,2.24,1.002,2.24,2.24
						v131.786C1419.189,1542.147,1418.187,1543.149,1416.95,1543.149z"/>
				</g>
			</g>
		</g>
		<g>
			<path style="fill:#d8d6dc;" stroke="#d8d6dc" d="M1381.276,725.102c0,63.971,101.955,217.707,126.38,253.621c2.508,3.687,7.923,3.678,10.431-0.009
				c17.496-25.724,74.717-111.825,105.813-182.137c12.337-27.896,20.561-53.306,20.561-71.475
				c0-72.677-58.916-131.593-131.593-131.593C1440.192,593.51,1381.276,652.426,1381.276,725.102z"/>
			<circle style="fill:#00000;" cx="1512.868" cy="725.102" r="60.171"/>
		</g>
		<g>
			<g>
				<g>
					<g>
						<path style="fill:#00000;" d="M834.273,2034.073l6.589,69.95c0.223,1.97-1.097,3.774-2.84,3.882l-34.733,2.148
							c-1.498,0.093-2.788-1.113-2.998-2.802l-6.455-63.572L834.273,2034.073z"/>
						<path style="fill:#d8d6dc;" stroke="#d8d6dc" d="M803.117,2112.299c-2.56,0-4.703-1.999-5.047-4.773l-6.462-63.621c-0.113-1.116,0.619-2.146,1.712-2.404l40.437-9.607
							c0.629-0.155,1.295-0.02,1.822,0.359c0.527,0.376,0.864,0.965,0.925,1.61l6.59,69.952c0.18,1.593-0.305,3.237-1.338,4.467
							c-0.934,1.113-2.211,1.774-3.595,1.859l-34.733,2.148C803.323,2112.294,803.219,2112.299,803.117,2112.299z M796.263,2045.405
							l6.257,61.62c0.062,0.492,0.365,0.755,0.629,0.792l34.735-2.148c0.197-0.013,0.36-0.173,0.44-0.267
							c0.243-0.291,0.36-0.711,0.313-1.127l-6.352-67.429L796.263,2045.405z"/>
					</g>
					<g>
						<path style="fill:#00000;" d="M846.339,2085.914c2.306,8.263,7.169,31.547,9.203,45.554
							c1.277,8.788-4.278,17.105-12.778,19.405c-24.032,6.5-81.484,6.22-129.313,8.332c-3.274,0.145-9.313-1.454-11.997-9.39
							c-9.101-26.917,41.169-35.255,90.859-62.62c0.976-0.538,2.165-0.488,3.073,0.16c0.571,0.407,1.299,0.906,2.156,1.451
							c8.644,5.5,23.011,5.508,31.789,0.229l9.914-5.962C841.966,2081.437,845.481,2082.839,846.339,2085.914z"/>
						<path style="fill:#d8d6dc;" stroke="#d8d6dc" d="M713.038,2161.454c-4.732,0-10.967-2.826-13.704-10.922c-7.001-20.708,16.234-30.771,48.392-44.696
							c13.374-5.792,28.532-12.357,43.509-20.606c1.752-0.965,3.842-0.849,5.454,0.298c0.548,0.394,1.241,0.868,2.057,1.387
							c7.842,4.988,21.319,5.077,29.434,0.199l9.912-5.961c1.901-1.144,4.166-1.328,6.221-0.51c2.059,0.818,3.584,2.52,4.183,4.668
							c2.394,8.575,7.235,31.873,9.263,45.833c1.433,9.87-4.762,19.28-14.41,21.887c-18.128,4.904-53.956,5.974-91.888,7.105
							c-12.62,0.376-25.669,0.766-37.911,1.306C713.382,2161.45,713.211,2161.454,713.038,2161.454z M793.736,2089.066
							c-0.114,0-0.23,0.028-0.339,0.09c-15.164,8.352-30.426,14.96-43.891,20.792c-29.962,12.976-51.609,22.349-45.929,39.15
							c2.633,7.785,8.613,7.89,9.777,7.87c12.273-0.542,25.339-0.932,37.975-1.308c37.661-1.124,73.233-2.185,90.851-6.949
							c7.462-2.019,12.254-9.294,11.146-16.922c-1.952-13.439-6.806-36.899-9.145-45.273c-0.22-0.788-0.775-1.411-1.525-1.711
							c-0.743-0.291-1.565-0.227-2.255,0.188l-9.912,5.961c-9.566,5.753-24.884,5.635-34.146-0.258
							c-0.898-0.571-1.661-1.094-2.26-1.522C793.983,2089.101,793.862,2089.066,793.736,2089.066z"/>
					</g>
					<g>
						<path style="fill:#00000;" d="M856.991,2137.812c0.048,0.243,0.079,0.413,0.091,0.49c1.276,8.788-7.07,14.19-15.049,17.935
							c-23.678,11.114-119.301,4.745-122.993,4.494c-0.075-0.005-0.129-0.007-0.204-0.005c-1.19,0.018-13.328,0.018-16.827-7.53
							c-0.435-0.938-0.702-2.254-0.866-3.491c-0.267-2.019-0.129-4.07,0.316-6.057c0.363-1.621,1.958-2.631,3.553-2.223
							c17.75,4.539,59.191,6.045,100.605,1.484c27.531-3.032,39.492-9.036,45.873-12.852c1.74-1.041,3.965-0.031,4.361,1.971
							C856.182,2133.701,856.584,2135.737,856.991,2137.812z"/>
						<path style="fill:#d8d6dc;" stroke="#d8d6dc" d="M778.986,2165c-29.613,0-57.927-1.888-60.098-2.034c-1.545-0.022-14.836-0.035-18.911-8.829
							c-0.477-1.028-0.821-2.382-1.054-4.138c-0.292-2.198-0.174-4.5,0.351-6.84c0.311-1.391,1.146-2.566,2.353-3.307
							c1.188-0.731,2.586-0.945,3.94-0.597c16.453,4.206,57.021,6.138,99.806,1.428c26.357-2.905,38.288-8.553,44.969-12.549
							c1.433-0.858,3.2-0.967,4.725-0.289c1.539,0.685,2.653,2.085,2.983,3.747l1.141,5.79c0.059,0.3,0.096,0.508,0.109,0.602
							c1.538,10.589-8.574,16.646-16.315,20.282C831.703,2163.561,804.849,2165,778.986,2165z M718.816,2158.486
							c0.074,0,0.303,0.004,0.354,0.009c34.077,2.321,103.382,4.416,121.911-4.285c10.39-4.878,14.641-9.686,13.784-15.588
							l-0.071-0.374c0-0.002,0-0.002-0.001-0.004l-1.139-5.781c-0.065-0.326-0.283-0.468-0.407-0.523
							c-0.143-0.065-0.362-0.109-0.606,0.04c-7.041,4.211-19.551,10.156-46.779,13.157c-43.308,4.764-84.57,2.763-101.406-1.542
							c-0.213-0.05-0.382,0.013-0.487,0.074c-0.095,0.059-0.265,0.199-0.325,0.468c-0.409,1.826-0.504,3.6-0.282,5.272
							c0.223,1.684,0.521,2.504,0.678,2.844c2.935,6.333,14.253,6.21,14.762,6.234
							C718.806,2158.486,718.81,2158.486,718.816,2158.486z"/>
					</g>
					<path style="fill:#d8d6dc;" stroke="#d8d6dc" d="M788.906,2111.185c-0.473,0-0.949-0.149-1.355-0.457l-14.506-11.046c-0.984-0.75-1.175-2.155-0.424-3.139
						c0.749-0.984,2.152-1.175,3.139-0.427l14.506,11.046c0.984,0.75,1.175,2.155,0.424,3.139
						C790.249,2110.881,789.582,2111.185,788.906,2111.185z"/>
					<path style="fill:#d8d6dc;" stroke="#d8d6dc" d="M769.633,2119.086c-0.467,0-0.94-0.146-1.342-0.448l-12.69-9.524c-0.99-0.741-1.19-2.146-0.447-3.137
						c0.742-0.987,2.147-1.188,3.136-0.446l12.69,9.524c0.99,0.741,1.19,2.146,0.447,3.137
						C770.987,2118.778,770.314,2119.086,769.633,2119.086z"/>
				</g>
				<g>
					<path  style="fill:#00000;" d="M922.122,1474.309c0,0,23.71,47.448,31.686,97.434c7.425,46.539,34.73,238.152,101.268,391.848
						c7.543,17.424-1.166,35.557-19.718,39.597c-7.422,1.616-10.532-1.027-16.959-4.152c-3.311-1.61-8.802-6.368-8.802-6.368
						s-117.793-98.445-165.822-356.75c-30.892-166.14-25.753-152.961-25.753-152.961L922.122,1474.309z"/>
					<path style="fill:#00000;" d="M889.053,1496.024c0,0,13.829,90.166-12.325,156.875
						c-25.148,64.143-41.208,315.608-31.835,388.258c0.59,4.57-2.581,8.748-7.144,9.389c-11.439,1.607-32.067,3.789-46.176,1.151
						c-2.596-0.485-4.68-2.39-5.327-4.951c-9.315-36.861-86.567-370.053-32.098-540.797L889.053,1496.024z"/>
					<path style="fill:#d8d6dc;" stroke="#d8d6dc" d="M862.613,1730.44c-0.045,0-0.09-0.002-0.136-0.004c-1.235-0.072-2.177-1.133-2.102-2.369
						c0.019-0.326,2.116-32.984,17.633-69.278c2.999-7.013,5.475-15.004,7.361-23.749c0.26-1.21,1.448-1.982,2.662-1.717
						c1.208,0.26,1.977,1.453,1.717,2.662c-1.946,9.025-4.509,17.289-7.621,24.567c-15.214,35.585-17.261,67.462-17.281,67.782
						C864.777,1729.524,863.789,1730.44,862.613,1730.44z"/>
					<path style="fill:#d8d6dc;" stroke="#d8d6dc" d="M824.291,1645.061c-3.414,0-6.841-0.704-10.048-2.139l-24.741-11.079c-8.324-3.725-13.515-12.024-13.223-21.141
						l1.553-48.688c0.072-2.235,1.081-4.359,2.766-5.827c1.694-1.472,3.954-2.188,6.177-1.945
						c29.355,3.108,56.906,0.214,70.716-1.785c0,0,0,0,0.001,0c2.411-0.35,4.827,0.392,6.625,2.034
						c1.794,1.638,2.747,3.972,2.616,6.401l-2.741,50.986c-0.365,6.779-3.73,12.952-9.23,16.933l-16.018,11.587
						C834.484,1643.479,829.403,1645.061,824.291,1645.061z M785.908,1558.675c-0.873,0-1.701,0.308-2.368,0.888
						c-0.761,0.663-1.198,1.584-1.23,2.594l-1.553,48.688c-0.233,7.291,3.918,13.927,10.576,16.906l24.741,11.079
						c6.551,2.936,14.233,2.144,20.044-2.065l16.018-11.587c4.399-3.183,7.091-8.12,7.383-13.542l2.741-50.987
						c0.058-1.083-0.366-2.124-1.166-2.852c-0.802-0.733-1.885-1.054-2.96-0.91c-14.018,2.034-41.99,4.974-71.832,1.807
						C786.171,1558.682,786.038,1558.675,785.908,1558.675z"/>
					<path style="fill:#d8d6dc;" stroke="#d8d6dc" d="M945.856,1637.759c-1.276,0-2.56-0.297-3.748-0.901l-27.244-13.844c-2.49-1.266-4.156-3.681-4.458-6.457l-6.144-56.722
						c-0.476-4.388,2.568-8.354,6.93-9.027l25.74-4.062c1.212-0.197,2.37,0.641,2.561,1.861c0.193,1.223-0.641,2.369-1.864,2.562
						l-25.747,4.064c-1.996,0.311-3.384,2.12-3.167,4.121l6.144,56.72c0.138,1.267,0.898,2.369,2.034,2.947l27.245,13.844
						c1.247,0.636,2.732,0.525,3.875-0.282l6.485-4.384c1.027-0.696,2.419-0.424,3.11,0.601c0.692,1.024,0.423,2.417-0.602,3.108
						l-6.444,4.355C949.169,1637.252,947.519,1637.759,945.856,1637.759z"/>
					<path style="fill:#d8d6dc;" stroke="#d8d6dc" d="M807.462,2055.161c-5.766,0-11.41-0.348-16.301-1.262c-3.456-0.647-6.237-3.24-7.087-6.604
						c-0.906-3.585-89.938-360.596-32.06-542.028c0.278-0.873,1.058-1.487,1.97-1.553l63.349-4.661
						c-2.694-17.803-2.234-17.926-0.086-18.501c0.454-0.123,0.983-0.105,1.477,0.101l103.214-8.575
						c0.899-0.081,1.781,0.411,2.19,1.229c0.238,0.479,23.956,48.333,31.893,98.084c0.43,2.693,0.926,5.871,1.493,9.5
						c9.162,58.684,37.043,237.263,99.619,381.81c3.951,9.124,3.83,19.009-0.33,27.117c-4.094,7.982-11.54,13.507-20.966,15.559
						c-7.029,1.525-10.811-0.429-15.603-2.905c-0.875-0.451-1.801-0.932-2.812-1.422c-3.537-1.719-9.057-6.49-9.291-6.691
						c-0.89-0.744-91.125-77.87-145.454-267.867c-14.638,98.228-22.759,258.577-15.56,314.378c0.743,5.753-3.32,11.088-9.054,11.893
						C830.579,2053.816,818.785,2055.161,807.462,2055.161z M755.827,1508.069c-56.558,180.681,31.69,534.564,32.591,538.127
						c0.43,1.704,1.796,2.966,3.567,3.296c13.869,2.596,34.432,0.383,45.452-1.166c3.316-0.466,5.664-3.555,5.234-6.884
						c-7.641-59.224,1.18-226.73,17.161-325.873c0.168-1.041,1.039-1.824,2.091-1.881c1.049-0.092,2.002,0.63,2.28,1.647
						c53.561,195.792,145.902,274.836,146.828,275.613c1.496,1.295,5.849,4.86,8.344,6.072c1.046,0.508,2.006,1.004,2.91,1.472
						c4.61,2.38,7.152,3.695,12.593,2.505c8.094-1.761,14.463-6.457,17.933-13.223c3.547-6.914,3.621-15.404,0.207-23.294
						c-62.804-145.072-90.752-324.077-99.936-382.899c-0.565-3.622-1.061-6.796-1.49-9.487
						c-7.088-44.422-26.94-87.337-30.818-95.426l-100.758,8.371c0.174,2.089,0.689,6.488,2.105,15.73
						c0.095,0.617-0.072,1.247-0.462,1.735c-0.389,0.488-0.965,0.792-1.588,0.838L755.827,1508.069z"/>
				</g>
				<g>
					<g>
						<path style="fill:#00000;" d="M1040.344,2040.795c-4.284-19.572-6.061-23.577-15.763-38.549
							c-7.211-11.128,9.51-28.406,18.158-29.863c14.41-3.238,12.179,1.385,29.106,22.287l13.24,15.698
							C1085.085,2010.367,1044.087,2057.899,1040.344,2040.795z"/>
						<path style="fill:#d8d6dc;" stroke="#d8d6dc" d="M1044.201,2046.724c-0.529,0-1.03-0.057-1.502-0.177c-1.637-0.416-3.755-1.667-4.544-5.274
							c-4.299-19.647-6.113-23.394-15.454-37.81c-2.717-4.193-2.831-9.415-0.328-15.102c3.686-8.376,13.215-17.047,19.994-18.188
							c12.142-2.728,14.345,0.326,21.649,10.454c2.401,3.327,5.388,7.468,9.57,12.635l13.211,15.662
							c0.71,0.84,0.703,2.074-0.015,2.907C1081.59,2017.85,1056.06,2046.724,1044.201,2046.724z M1042.532,2040.315
							c0.363,1.66,1.02,1.827,1.268,1.89c5.961,1.525,25.538-17.268,38.336-31.86l-12.002-14.231
							c-4.29-5.296-7.318-9.493-9.75-12.866c-7.191-9.97-7.778-10.791-17.153-8.68c-4.906,0.829-13.395,7.958-16.757,15.599
							c-1.892,4.301-1.895,7.953-0.012,10.861C1036.479,2016.487,1038.282,2020.893,1042.532,2040.315z"/>
					</g>
					<path style="fill:#d8d6dc;" stroke="#d8d6dc" d="M1044.201,2046.724c-0.529,0-1.03-0.057-1.502-0.177c-1.637-0.416-3.755-1.667-4.544-5.274
						c-3.713-16.966-8.125-26.057-15.475-37.842c-0.654-1.05-0.334-2.432,0.715-3.086c1.051-0.654,2.433-0.333,3.087,0.715
						c7.621,12.223,12.196,21.651,16.05,39.255c0.363,1.66,1.02,1.827,1.268,1.89c5.945,1.496,25.531-17.259,38.331-31.853
						l-11.322-13.313c-5.068-6.256-10.497-14.459-12.911-18.326c-0.655-1.048-0.336-2.43,0.713-3.086
						c1.052-0.654,2.431-0.335,3.086,0.715c2.198,3.52,7.652,11.779,12.559,17.838l12.535,14.737c0.715,0.84,0.711,2.078-0.01,2.914
						C1081.59,2017.85,1056.06,2046.722,1044.201,2046.724z"/>
					<g>
						<path style="fill:#00000;" d="M1037.925,2033.465l16.291-25.569c7.6-11.929,24.186-13.986,34.469-4.274l19.46,15.736
							c0,0,3.865,10.994,2.828,18.151c-1.35,9.322-4.096,22.621-9.641,35.85c-8.533,20.356-32.425,61.378-40.933,75.794
							c-1.783,3.02-6.326,6.061-9.552,4.687c-3.832-1.632-7.824-4.623-11.694-8.124c-5.988-5.416-4.48-31.273-2.694-49.287
							c1.145-11.549-0.394-40.942-1.109-53.057C1035.142,2039.877,1036.044,2036.418,1037.925,2033.465z"/>
						<path style="fill:#d8d6dc;" stroke="#d8d6dc" d="M1052.585,2156.423c-0.886,0-1.767-0.16-2.617-0.523c-3.685-1.569-7.715-4.357-12.32-8.524
							c-1.927-1.743-7.795-7.05-3.42-51.168c1.129-11.392-0.405-40.651-1.116-52.704c-0.236-3.981,0.776-7.87,2.923-11.241
							l16.29-25.571c3.983-6.252,10.487-10.36,17.843-11.272c7.355-0.906,14.665,1.485,20.053,6.575l19.331,15.623
							c0.323,0.26,0.567,0.606,0.704,0.997c0.165,0.47,4.034,11.602,2.932,19.214c-1.316,9.084-4.082,22.773-9.793,36.396
							c-8.458,20.179-31.539,59.918-41.07,76.065C1060.613,2153.195,1056.553,2156.423,1052.585,2156.423z M1037.925,2033.466
							l1.889,1.203c-1.638,2.572-2.41,5.536-2.23,8.573c0.719,12.156,2.263,41.697,1.103,53.408
							c-3.747,37.79,0.128,45.741,1.968,47.406c4.229,3.826,7.851,6.352,11.069,7.724c1.864,0.801,5.379-1.45,6.746-3.765
							c9.484-16.069,32.445-55.595,40.795-75.521c5.53-13.19,8.214-26.479,9.491-35.307c0.817-5.639-1.778-14.194-2.529-16.497
							l-18.952-15.325c-4.542-4.281-10.531-6.256-16.555-5.497c-6.025,0.746-11.353,4.11-14.616,9.231l-16.29,25.571
							L1037.925,2033.466z"/>
					</g>
					<path style="fill:#d8d6dc;" stroke="#d8d6dc" d="M1036.444,2064.552c-0.968,0-1.86-0.632-2.148-1.608c-0.349-1.186,0.33-2.432,1.517-2.78l17.937-5.281
						c1.183-0.359,2.43,0.328,2.781,1.516c0.349,1.186-0.33,2.432-1.517,2.78l-17.937,5.281
						C1036.867,2064.523,1036.655,2064.552,1036.444,2064.552z"/>
					<path style="fill:#d8d6dc;" stroke="#d8d6dc" d="M1038.072,2080.616c-0.968,0-1.86-0.632-2.148-1.608c-0.349-1.186,0.33-2.432,1.517-2.78l17.937-5.278
						c1.192-0.354,2.431,0.33,2.781,1.516c0.349,1.186-0.33,2.432-1.517,2.78l-17.937,5.278
						C1038.494,2080.587,1038.282,2080.616,1038.072,2080.616z"/>
					<g>
						<path style="fill:#00000;" d="M1057.855,2155.037c-1.836,0.033-3.587-0.229-5.187-0.747
							c-5.414-1.756-18.95-5.523-17.798-24.853c1.194-20.035,16.229-30.5,27.1-43.83c8.296-10.172,6.686-52.048,9.205-60.307
							c4.511-14.791,25.953-17.396,36.969-5.941c6.955,7.233,8.05,23.196,7.598,34.959c-0.846,22.024-12.989,66.054-28.955,87.5
							C1078.999,2152.278,1066.742,2154.876,1057.855,2155.037z"/>
						<path style="fill:#d8d6dc;" stroke="#d8d6dc" d="M1057.528,2157.278c-1.927,0-3.792-0.286-5.551-0.857l-0.479-0.153c-5.494-1.765-20.087-6.453-18.863-26.964
							c0.966-16.213,10.502-26.422,19.723-36.296c2.662-2.85,5.414-5.797,7.877-8.815c5.014-6.151,6.17-26.577,7.014-41.493
							c0.475-8.371,0.849-14.984,1.784-18.053c2.135-6.997,7.81-12.077,15.57-13.934c9.055-2.168,18.928,0.617,25.156,7.094
							c8.055,8.376,8.609,26.525,8.221,36.596c-0.813,21.181-12.668,66.285-29.396,88.755c-8.91,11.965-23.052,13.982-30.69,14.12
							C1057.773,2157.278,1057.649,2157.278,1057.528,2157.278z M1090.829,2014.462c-1.734,0-3.475,0.197-5.183,0.606
							c-6.176,1.479-10.669,5.447-12.328,10.887c-0.779,2.551-1.176,9.57-1.596,16.999c-0.929,16.393-2.083,36.795-8.016,44.07
							c-2.558,3.137-5.363,6.14-8.074,9.043c-9.08,9.721-17.656,18.901-18.526,33.505c-1.016,17.042,9.899,20.549,15.762,22.432
							l0.491,0.158c1.396,0.45,2.893,0.654,4.453,0.636c0.001,0,0.001,0,0.002,0c6.816-0.123,19.41-1.885,27.177-12.317
							c16.221-21.787,27.722-65.634,28.514-86.248c0.611-15.931-1.93-28.076-6.975-33.319
							C1102.549,2016.772,1096.743,2014.462,1090.829,2014.462z"/>
					</g>
					<path style="fill:#d8d6dc;" stroke="#d8d6dc" d="M1057.544,2157.278c-4.829,0-9.231-1.818-12.123-5.018c-2.631-2.911-3.81-6.77-3.318-10.865
						c2.507-20.899,13.644-31.973,25.434-43.698c9.026-8.977,10.9-40.349,11.8-55.427c0.336-5.622,0.512-8.384,0.848-9.703
						c1.589-6.254,9.493-12.191,17.621-13.234c7.57-0.967,14.045,2.343,17.773,9.093c0.598,1.083,0.204,2.446-0.878,3.045
						c-1.087,0.597-2.447,0.203-3.044-0.879c-3.628-6.578-9.217-7.337-13.281-6.816c-6.905,0.886-12.84,5.926-13.849,9.894
						c-0.246,0.967-0.465,4.629-0.718,8.87c-1.005,16.828-2.876,48.152-13.114,58.334c-11.71,11.646-21.824,21.701-24.146,41.056
						c-0.339,2.828,0.42,5.364,2.195,7.328c2.092,2.314,5.353,3.605,9.069,3.539c2.007-0.035,3.993-0.199,5.903-0.481
						c1.212-0.164,2.362,0.665,2.544,1.888c0.182,1.223-0.664,2.362-1.888,2.544c-2.099,0.311-4.279,0.49-6.478,0.529
						C1057.778,2157.278,1057.661,2157.278,1057.544,2157.278z"/>
				</g>
			</g>
			<g>
				<g>
					<polygon style="fill:#00000;" points="875.231,1161.414 864.578,1102.944 816.941,1115.199 823.516,1155.906 					"/>
					<path style="fill:#d8d6dc;" stroke="#d8d6dc" d="M875.232,1163.653c-0.079,0-0.158-0.004-0.237-0.013l-51.716-5.508c-1.004-0.107-1.813-0.873-1.974-1.87l-6.574-40.706
						c-0.185-1.142,0.533-2.238,1.654-2.526l47.636-12.256c0.599-0.153,1.24-0.052,1.765,0.284c0.524,0.335,0.885,0.873,0.996,1.483
						l10.654,58.47c0.127,0.696-0.082,1.409-0.562,1.927C876.447,1163.397,875.851,1163.653,875.232,1163.653z M825.453,1153.86
						l47.037,5.009l-9.685-53.156l-43.327,11.147L825.453,1153.86z"/>
				</g>
				<g>
					<path style="fill:#d8d6dc;" stroke="#d8d6dc" d="M825.324,1024.206c17.027,2.31,19.344,21.53,39.691,23.789c9.324,1.035,14.007-2.426,22.268,1.542
						c5.471,2.627,13.431,8.955,14.244,17.329c1.036,10.665-10.656,12.967-22.6,33.493c-8.388,14.416-8.899,24.068-15.57,25.111
						c-6.746,1.055-9.762-8.26-17.217-7.661c-9.648,0.774-10.908,16.88-21.09,21.682c-6.418,3.027-19.86,2.396-38.832-11.815
						c-3.075-2.303-4.072-6.477-2.361-9.916c2.193-4.407,4.994-9.959,8.115-15.04c14.875-24.215,25.375-28.302,23.305-35.727
						c-3.173-11.377-24.052-9.269-25.659-18.42C787.948,1039.07,807.841,1021.834,825.324,1024.206z"/>
					<g>
						<path style="fill:#00000;" d="M852.968,1073.657l-4.529-2.356c0,0-14.687,30.657-20.433,38.51
							c-5.747,7.853-31.416-8.1-31.416-8.1l-0.629-5.662l-3.07-2c-0.952-0.62-1.572-1.638-1.687-2.768
							c-0.115-1.13,0.288-2.252,1.095-3.051c6.194-6.139,19.337-20.072,25.725-33.632
							C818.023,1054.597,839.63,1053.317,852.968,1073.657z"/>
						<path style="fill:#d8d6dc;" stroke="#d8d6dc" d="M854.629,1075.159c-0.976-0.124-2.179-0.166-3.524-0.446c-1.343-0.272-2.653-0.817-3.727-1.373l3.135-1.046
							c-2.806,5.884-5.621,11.741-8.587,17.544c-2.967,5.806-5.963,11.58-9.32,17.282c-0.886,1.448-1.698,2.79-2.84,4.343
							c-0.762,0.978-1.82,1.712-2.873,2.156c-1.061,0.441-2.11,0.629-3.103,0.713c-3.957,0.219-7.263-0.821-10.484-1.891
							c-6.39-2.297-12.191-5.357-17.908-8.811c-0.615-0.371-0.984-1.007-1.054-1.67c-0.185-1.891-0.439-3.773-0.565-5.67
							l0.983,1.598c-0.89-0.652-1.717-1.401-2.575-2.103c-0.171-0.151-0.495-0.388-0.796-0.688c-0.29-0.283-0.533-0.606-0.759-0.931
							c-0.443-0.659-0.744-1.4-0.901-2.164c-0.316-1.53,0.051-3.195,1.034-4.423c0.581-0.684,0.84-0.88,1.26-1.327l1.142-1.175
							c3.05-3.132,5.951-6.409,8.706-9.792c2.757-3.38,5.361-6.875,7.754-10.48c2.396-3.599,4.612-7.305,6.38-11.16l0.018-0.039
							c0.348-0.759,1.088-1.214,1.869-1.238c3.901-0.11,7.39,0.434,10.963,1.314c3.531,0.892,6.956,2.22,10.169,3.961
							c3.219,1.73,6.202,3.898,8.882,6.381c1.305,1.278,2.58,2.588,3.716,4.011c0.598,0.688,1.12,1.433,1.673,2.154l0.205,0.272
							c0.093,0.128,0.24,0.348,0.354,0.542c0.243,0.406,0.473,0.894,0.619,1.42C854.784,1073.503,854.665,1074.523,854.629,1075.159
							z M851.307,1072.155c-0.528-0.075-1.137,0.233-1.319,0.602c-0.099,0.171-0.116,0.302-0.119,0.352
							c-0.009,0.016,0.018,0.057-0.016,0.01l-0.189-0.243c-0.511-0.643-0.99-1.313-1.539-1.922
							c-1.041-1.269-2.205-2.423-3.386-3.549c-2.386-2.227-5.032-4.176-7.903-5.735c-2.863-1.572-5.932-2.781-9.106-3.6
							c-3.127-0.817-6.551-1.293-9.573-1.245l1.887-1.276c-4.063,8.22-9.604,15.332-15.463,22.034
							c-2.961,3.329-6.003,6.571-9.122,9.738l-2.219,2.226c-0.401,0.493-0.592,1.179-0.436,1.807
							c0.071,0.314,0.238,0.601,0.462,0.819c0.107,0.114,0.245,0.194,0.376,0.267l0.555,0.262c0.99,0.501,2.009,0.955,2.965,1.506
							c0.529,0.305,0.861,0.82,0.951,1.379l0.035,0.219c0.292,1.879,0.457,3.771,0.692,5.656l-1.053-1.67
							c5.411,3.207,11.195,6.172,17.055,8.204c2.898,0.973,5.99,1.761,8.553,1.56c1.275-0.117,2.168-0.505,2.61-1.095
							c0.778-1.063,1.675-2.485,2.477-3.808c3.24-5.485,6.237-11.236,9.184-16.986c2.935-5.762,5.869-11.548,8.704-17.357
							l0.013-0.028c0.553-1.134,1.922-1.604,3.056-1.051l0.066,0.033c0.435,0.231,0.635,0.471,0.801,0.984
							C850.466,1070.75,850.773,1071.493,851.307,1072.155z"/>
					</g>
					<path style="fill:#00000;" d="M843.305,1096.08c0,0,11.811-14.454,17.251-7.689
						C865.996,1095.156,852.594,1110.741,843.305,1096.08z"/>
				</g>
			</g>
			<g>
				<g>
					<path style="fill:#00000;" d="M1042.707,1537.554c0,0-3.688,36.371,2.654,49.518c6.342,13.147,47.559,38.284,47.559,38.284
						s12.496-7.978,0-18.185c-12.495-10.206-17.541-18.694-17.541-18.694s2.56-38.696-3.047-46.725
						C1066.725,1533.722,1042.707,1537.554,1042.707,1537.554z"/>
					<path style="fill:#d8d6dc;" stroke="#d8d6dc" d="M1092.92,1627.594c-0.404,0-0.808-0.109-1.166-0.328c-1.706-1.039-41.857-25.634-48.412-39.22
						c-6.54-13.562-3.018-49.208-2.864-50.718c0.103-1.011,0.873-1.826,1.876-1.986c2.602-0.416,25.584-3.797,31.814,5.127
						c5.622,8.047,3.895,40.942,3.494,47.417c1.336,2.012,6.475,9.218,16.676,17.55c4.456,3.64,6.595,7.533,6.359,11.574
						c-0.362,6.201-6.317,10.071-6.571,10.233C1093.758,1627.476,1093.339,1627.594,1092.92,1627.594z M1044.778,1539.516
						c-0.622,7.319-2.629,35.742,2.6,46.583c4.785,9.92,33.224,28.996,45.403,36.541c1.287-1.111,3.299-3.257,3.444-5.913
						c0.138-2.518-1.45-5.149-4.723-7.822c-12.656-10.338-17.835-18.923-18.048-19.284c-0.232-0.389-0.34-0.84-0.311-1.293
						c0.969-14.658,1.107-39.918-2.649-45.295C1067.217,1538.339,1053.668,1538.35,1044.778,1539.516z"/>
				</g>
				<g>
					<path  style="fill:#00000;" d="M584.074,1037.652l2.894-19.257c0.817-5.437-0.207-10.992-2.909-15.78l-27.577-48.872
						c-1.157-2.051-3.992-2.491-5.624-0.793c-2.761,2.875-5.475,8.143-1.546,16.397l6.486,12.343
						c1.435,2.73,0.643,6.055-1.794,7.945c-3.763,2.918-8.697,8.127-9.743,15.887c-2.838,21.052,20.302,36.229,20.302,36.229
						L584.074,1037.652z"/>
					<path style="fill:#d8d6dc;" stroke="#d8d6dc" d="M564.562,1043.991c-0.433,0-0.861-0.125-1.228-0.368c-0.993-0.65-24.286-16.204-21.294-38.4
						c1.139-8.441,6.387-14.098,10.59-17.357c1.598-1.24,2.096-3.397,1.183-5.134l-6.486-12.344
						c-4.712-9.894-0.821-16.139,1.913-18.989c1.252-1.302,3.002-1.923,4.82-1.689c1.832,0.232,3.466,1.328,4.372,2.933
						l27.577,48.871c2.932,5.197,4.059,11.311,3.172,17.213l-2.893,19.256c-0.139,0.925-0.839,1.667-1.754,1.859l-19.512,4.099
						C564.87,1043.975,564.715,1043.991,564.562,1043.991z M553.33,954.144c-0.241,0-0.575,0.063-0.856,0.357
						c-3.437,3.581-3.82,8.253-1.14,13.884l6.446,12.265c1.924,3.66,0.913,8.185-2.404,10.756c-3.542,2.747-7.96,7.477-8.895,14.417
						c-2.336,17.327,14.763,30.777,18.571,33.537l17.038-3.581l2.662-17.716c0.739-4.919-0.2-10.014-2.645-14.347l-27.577-48.871
						c-0.306-0.545-0.824-0.665-1.032-0.691C553.45,954.149,553.393,954.144,553.33,954.144z M584.074,1037.651h0.022H584.074z"/>
				</g>
				<path style="fill:#d8d6dc;" stroke="#d8d6dc" d="M1080.631,1543.826h-47.718c0,0-10.318-169.449-101.263-224.283l6.943-136.264
					C938.592,1183.279,1129.243,1289.337,1080.631,1543.826z"/>
				<g>
					<path  style="fill:#00000;" d="M930.483,1356.536l35.651,169.403c0,0-145.185,24.9-195.781,15.813
						c-50.596-9.087-56.509-22.429-56.509-22.429l21.388-186.314L930.483,1356.536z"/>
					<path style="fill:#d8d6dc;" stroke="#d8d6dc" d="M799.911,1546.004c-11.659,0-21.937-0.608-29.953-2.047c-50.314-9.036-57.506-22.25-58.16-23.727
						c-0.162-0.365-0.223-0.768-0.178-1.164l21.388-186.314c0.069-0.593,0.37-1.133,0.838-1.503c0.467-0.37,1.057-0.538,1.656-0.466
						l195.25,23.528c0.953,0.116,1.726,0.825,1.924,1.763l35.652,169.403c0.126,0.595,0.003,1.216-0.339,1.719
						c-0.342,0.505-0.874,0.847-1.474,0.949C961.514,1529.003,861.555,1546.004,799.911,1546.004z M716.158,1518.812
						c1.618,2.194,11.557,13.007,54.591,20.735c46.177,8.292,173.972-12.319,192.712-15.43l-34.84-165.548l-191.42-23.066
						L716.158,1518.812z"/>
				</g>
				<path style="fill:#d8d6dc;" stroke="#d8d6dc" d="M865.36,1160.261l73.232,23.017l31.68,242.538c1.512,11.574-5.153,22.682-16.106,26.717
					c-35.084,12.925-117.959,35.756-232.403,18.075c-11.956-1.847-20.86-12.026-21.162-24.12
					c-1.016-40.662-1.762-131.906,9.737-184.327c0,0-161.458-0.145-152.117-218.349l33.773-9.221c0,0,56.757,128.244,154.72,123.283
					C746.715,1157.874,812.311,1143.588,865.36,1160.261z"/>
				<g>
					<path style="fill:#00000;" d="M802.821,1155.07c0,0,63.444-6.042,113.91,3.935c29.909,5.913,86.646,27.976,43.342,72.494
						c-43.304,44.517-73.114,40.282-87.393,15.375C858.401,1221.968,832.935,1164.356,802.821,1155.07z"/>
					<path style="fill:#d8d6dc;" stroke="#d8d6dc" d="M901.92,1267.626c-1.501,0-2.972-0.09-4.419-0.273c-11.047-1.393-20.302-8.089-26.765-19.365
						c-2.437-4.25-5.249-9.544-8.225-15.146c-14.425-27.155-36.224-68.191-60.351-75.63c-1.022-0.315-1.678-1.308-1.568-2.369
						c0.108-1.063,0.953-1.901,2.016-2.002c0.637-0.063,64.348-5.958,114.556,3.966c8.587,1.7,51.817,11.447,59.674,36.67
						c3.758,12.061-1.343,25.381-15.16,39.583C939.587,1255.77,919.044,1267.626,901.92,1267.626z M811.742,1156.647
						c22.367,13.179,41.551,49.291,54.726,74.092c2.959,5.571,5.754,10.832,8.156,15.021c5.737,10.007,13.842,15.938,23.438,17.149
						c16.532,2.063,37.397-9.321,60.406-32.973c12.583-12.936,17.326-24.755,14.095-35.128
						c-5.508-17.681-33.753-29.154-56.266-33.605C877.667,1153.563,830.82,1155.427,811.742,1156.647z"/>
				</g>
				<path style="fill:#d8d6dc;" stroke="#d8d6dc" d="M934.855,1211.696c-16.365,0.002-35.335-7.991-57.272-24.033c-18.207-13.317-23.398-13.811-24.038-13.814
					c-1.007,0.267-2.093-0.193-2.579-1.159c-0.556-1.105-0.11-2.452,0.995-3.008c3.291-1.665,13.335,3.445,28.266,14.363
					c34.891,25.518,60.528,29.946,80.679,13.923c0.965-0.768,2.377-0.61,3.147,0.361c0.77,0.969,0.609,2.378-0.36,3.148
					C955.128,1208.283,945.547,1211.696,934.855,1211.696z M853.966,1173.689c-0.001,0-0.001,0-0.001,0
					S853.964,1173.689,853.966,1173.689z M853.969,1173.687h-0.001H853.969z M853.974,1173.685c-0.001,0-0.002,0-0.003,0.002
					C853.972,1173.685,853.973,1173.685,853.974,1173.685z"/>
			</g>
		</g>
		<g>
			<path style="fill:#d8d6dc;" stroke="#d8d6dc" d="M1571.639,1974.611c-3.131,0-6.267-0.582-9.277-1.752c-6.548-2.546-11.707-7.549-14.527-14.083
				c-5.758-13.348,0.212-28.99,13.309-34.872c6.305-2.831,13.317-3.01,19.751-0.51c6.549,2.546,11.708,7.547,14.528,14.083
				c5.758,13.348-0.212,28.99-13.308,34.872C1578.76,1973.857,1575.202,1974.611,1571.639,1974.611z M1562.98,1927.991
				c-10.877,4.884-15.825,17.9-11.031,29.009c2.34,5.427,6.616,9.574,12.037,11.683c5.306,2.063,11.094,1.914,16.294-0.42
				c10.876-4.885,15.825-17.9,11.031-29.01c-2.342-5.427-6.617-9.577-12.039-11.683
				C1573.965,1925.508,1568.178,1925.655,1562.98,1927.991z"/>
			<path style="fill:#d8d6dc;" stroke="#d8d6dc" d="M2048.555,833.957c-10.341,0-18.754-8.413-18.754-18.755c0-10.34,8.413-18.753,18.754-18.753
				c10.341,0,18.754,8.413,18.754,18.753C2067.309,825.544,2058.896,833.957,2048.555,833.957z M2048.555,800.929
				c-7.87,0-14.274,6.403-14.274,14.273c0,7.87,6.404,14.275,14.274,14.275c7.87,0,14.274-6.405,14.274-14.275
				C2062.829,807.331,2056.426,800.929,2048.555,800.929z"/>
			<g>
				<path style="fill:#d8d6dc;" stroke="#d8d6dc" d="M1281.822,349.694c-0.252,0-0.509-0.041-0.759-0.133c-1.164-0.418-1.767-1.702-1.349-2.866l3.677-10.213
					c0.42-1.161,1.702-1.772,2.867-1.348c1.164,0.418,1.767,1.702,1.349,2.866l-3.677,10.213
					C1283.6,349.126,1282.739,349.694,1281.822,349.694z"/>
				<path style="fill:#d8d6dc;" stroke="#d8d6dc" d="M1268.951,385.441c-0.252,0-0.509-0.042-0.759-0.133c-1.164-0.418-1.767-1.702-1.349-2.865l3.677-10.213
					c0.42-1.161,1.702-1.774,2.867-1.347c1.164,0.418,1.767,1.702,1.349,2.866l-3.677,10.213
					C1270.729,384.873,1269.869,385.441,1268.951,385.441z"/>
				<path style="fill:#d8d6dc;" stroke="#d8d6dc" d="M1264.715,357.746c-0.262,0-0.529-0.046-0.79-0.144l-10.009-3.771c-1.158-0.435-1.742-1.728-1.306-2.885
					c0.435-1.157,1.724-1.748,2.885-1.306l10.009,3.771c1.158,0.435,1.742,1.728,1.306,2.885
					C1266.473,357.193,1265.62,357.746,1264.715,357.746z"/>
				<path style="fill:#d8d6dc;" stroke="#d8d6dc" d="M1299.743,370.948c-0.262,0-0.529-0.046-0.79-0.144l-10.009-3.771c-1.158-0.435-1.742-1.728-1.306-2.885
					c0.435-1.157,1.724-1.743,2.885-1.306l10.009,3.771c1.158,0.435,1.742,1.728,1.306,2.885
					C1301.501,370.394,1300.649,370.948,1299.743,370.948z"/>
			</g>
			<g>
				<path style="fill:#d8d6dc;" stroke="#d8d6dc" d="M1981.873,773.426c-0.723,0-1.433-0.35-1.865-0.995c-129.513-193.801-410.481-330.613-413.304-331.972
					c-1.116-0.538-1.584-1.877-1.047-2.99c0.538-1.115,1.877-1.581,2.989-1.048c0.709,0.341,71.851,34.784,158.115,92.819
					c79.662,53.592,188.91,138.855,256.973,240.702c0.687,1.028,0.41,2.419-0.618,3.106
					C1982.733,773.304,1982.301,773.426,1981.873,773.426z"/>
				<path style="fill:#d8d6dc;" stroke="#d8d6dc" d="M2027.762,772.718c-0.784,0-1.545-0.411-1.956-1.144c-88.493-157.866-324.464-302.035-326.837-303.472
					c-1.059-0.641-1.397-2.019-0.756-3.078c0.641-1.054,2.018-1.393,3.077-0.755c2.383,1.444,239.351,146.212,328.423,305.112
					c0.606,1.081,0.221,2.445-0.859,3.049C2028.509,772.626,2028.132,772.718,2027.762,772.718z"/>
				<path style="fill:#d8d6dc;" stroke="#d8d6dc" d="M1468.724,448.916c-0.035,0-0.07,0-0.105-0.002c-0.738-0.035-1.411-0.431-1.8-1.059l-29.958-48.423
					c-0.451-0.731-0.446-1.654,0.013-2.378c0.458-0.722,1.282-1.118,2.143-1.028l61.39,6.906c0.801,0.092,1.491,0.604,1.808,1.343
					c0.317,0.739,0.213,1.595-0.272,2.236l-31.432,41.517C1470.085,448.588,1469.424,448.916,1468.724,448.916z M1443.096,400.994
					l25.814,41.725l27.085-35.775L1443.096,400.994z"/>
			</g>
			<g>
				<path style="fill:#d8d6dc;" stroke="#d8d6dc" d="M1462.71,1985.279c-0.108,0-0.217-0.006-0.326-0.024c-1.224-0.177-2.073-1.315-1.894-2.54l1.988-13.654
					c0.178-1.223,1.316-2.1,2.54-1.892c1.224,0.177,2.073,1.315,1.894,2.54l-1.988,13.654
					C1464.761,1984.476,1463.804,1985.279,1462.71,1985.279z"/>
				<path style="fill:#d8d6dc;" stroke="#d8d6dc" d="M1455.752,2033.061c-0.108,0-0.217-0.006-0.326-0.024c-1.224-0.177-2.073-1.315-1.894-2.54l1.988-13.652
					c0.178-1.223,1.318-2.096,2.54-1.892c1.224,0.177,2.073,1.315,1.894,2.54l-1.988,13.652
					C1457.803,2032.259,1456.846,2033.061,1455.752,2033.061z"/>
				<path style="fill:#d8d6dc;" stroke="#d8d6dc" d="M1443.162,1999.843c-0.108,0-0.218-0.007-0.328-0.024l-13.651-1.999c-1.224-0.179-2.07-1.317-1.891-2.54
					c0.179-1.227,1.31-2.076,2.541-1.892l13.651,1.999c1.224,0.179,2.07,1.317,1.891,2.54
					C1445.212,1999.043,1444.255,1999.843,1443.162,1999.843z"/>
				<path style="fill:#d8d6dc;" stroke="#d8d6dc" d="M1490.939,2006.843c-0.108,0-0.218-0.006-0.328-0.024l-13.651-1.999c-1.224-0.179-2.07-1.317-1.891-2.54
					c0.178-1.225,1.315-2.089,2.541-1.892l13.651,1.999c1.224,0.179,2.07,1.317,1.891,2.54
					C1492.989,2006.042,1492.032,2006.843,1490.939,2006.843z"/>
			</g>
		</g>
	</g>
</g>
</svg>
